{"glyphs":{"0":{"ha":775,"x_min":36,"x_max":758,"o":"m 181 431 q 150 660 150 534 q 179 833 150 701 q 396 793 277 820 q 608 734 432 785 l 608 679 q 575 646 587 655 q 348 522 522 602 q 181 431 242 474 m 235 150 l 235 150 q 348 8 286 74 q 519 252 452 151 q 758 742 650 450 q 246 920 569 839 l 36 821 q 121 372 45 574 q 79 233 77 304 q 120 170 81 193 q 197 147 153 150 q 235 150 218 146 m 136 334 l 136 334 q 217 179 171 253 q 169 167 191 167 q 125 179 149 167 q 91 227 91 197 q 136 334 91 277 m 608 639 l 608 639 l 608 615 q 376 114 608 447 q 311 192 342 153 l 311 195 q 368 290 355 231 q 360 353 375 321 q 317 397 345 386 l 319 390 q 341 332 341 366 q 286 228 341 281 q 203 375 221 320 l 199 387 q 410 507 256 426 q 608 639 552 582 z "},"1":{"ha":304,"x_min":26,"x_max":269,"o":"m 161 808 q 26 833 39 819 l 269 907 l 211 -31 l 161 808 z "},"2":{"ha":765,"x_min":26,"x_max":844,"o":"m 211 119 l 211 119 q 144 -25 171 45 q 46 43 50 -14 q 75 97 43 80 q 179 122 123 122 q 211 119 191 122 m 673 -8 l 673 -8 q 844 33 763 -8 l 840 43 q 710 21 795 24 q 640 24 668 20 q 429 100 585 32 q 286 150 357 132 q 543 421 486 355 q 714 699 714 619 q 527 884 714 798 q 356 914 460 914 q 168 886 248 914 q 52 758 52 846 q 127 653 52 704 q 254 610 165 628 q 390 595 332 595 l 431 595 l 392 607 q 242 646 309 614 q 163 733 163 684 l 163 755 q 348 896 163 886 q 517 867 458 901 q 612 735 613 810 q 608 708 612 722 q 441 444 593 640 q 233 160 264 214 l 215 160 q 60 106 133 160 q 30 31 26 80 q 130 -65 36 -43 q 90 -132 106 -110 q 111 -114 92 -126 q 146 -68 139 -83 l 148 -68 q 177 -71 163 -71 q 302 -4 265 -71 q 317 54 321 28 l 302 40 q 256 -13 295 7 q 185 -29 221 -31 q 169 -28 161 -28 q 256 110 206 40 q 435 49 333 88 q 673 -8 584 -8 z "},"3":{"ha":871,"x_min":-10,"x_max":890,"o":"m 213 632 l 213 632 q 319 659 262 637 q 388 711 388 684 q 264 781 388 747 q 102 847 125 819 q 148 886 104 871 q 213 896 180 896 q 551 875 450 896 q 752 697 750 833 q 673 519 754 562 q 423 471 627 494 l 429 468 l 423 467 q 651 420 584 455 q 752 229 755 366 q 307 25 749 25 q 213 29 285 25 q 108 78 117 35 q 246 140 117 87 q 398 228 373 193 q 213 292 344 277 q 302 243 302 269 q 146 165 302 241 q -10 81 -10 90 q 83 32 -10 54 q 366 4 200 4 q 704 47 569 4 q 883 225 877 103 q 793 412 890 355 q 579 469 728 452 q 807 529 747 490 q 883 699 883 578 q 392 920 883 920 q 213 911 343 920 q 83 892 146 906 q -10 843 -10 870 q 146 758 -10 834 q 302 681 302 682 q 213 632 302 653 z "},"4":{"ha":1125,"x_min":30,"x_max":1129,"o":"m 773 538 l 610 542 q 667 505 642 513 l 682 319 l 612 355 q 439 392 542 392 q 290 366 362 392 q 684 854 652 624 q 686 878 686 869 l 686 879 l 682 878 q 600 918 627 909 l 579 812 q 284 399 535 590 q 69 235 282 396 q 30 199 52 222 q 148 269 96 237 q 421 334 283 334 q 573 306 517 334 l 688 249 l 720 -311 l 748 236 q 819 231 783 231 q 1048 292 962 231 l 1129 371 q 983 309 1075 332 q 823 289 901 289 q 752 294 783 289 l 773 538 z "},"5":{"ha":1000,"x_min":28,"x_max":946,"o":"m 203 493 l 193 493 l 203 496 l 193 497 l 203 498 l 203 493 m 79 917 l 79 917 l 75 917 q 117 879 87 909 q 179 847 140 856 l 193 454 l 203 492 q 321 496 264 496 q 712 410 576 496 q 789 228 791 359 q 640 65 787 117 q 344 25 527 25 q 250 29 321 25 q 146 78 155 35 q 284 140 154 87 q 435 228 411 193 q 250 292 381 277 q 340 243 340 269 q 184 165 340 241 q 28 81 28 90 q 121 32 28 54 q 404 4 238 4 q 740 47 608 4 q 921 225 914 104 q 850 401 927 325 q 435 521 731 521 q 203 498 322 521 l 264 840 q 480 858 334 842 q 696 873 621 873 q 946 799 861 873 q 696 913 879 913 q 494 895 628 913 q 292 876 360 876 q 79 917 163 876 z "},"6":{"ha":968,"x_min":44,"x_max":926,"o":"m 594 4 l 594 4 q 805 55 703 2 q 923 220 926 118 q 807 361 920 304 q 618 408 712 408 q 475 376 543 408 q 390 268 392 336 q 614 125 385 125 q 750 179 684 125 q 610 147 690 147 q 506 171 547 147 q 459 260 456 200 q 519 365 463 328 q 640 396 568 396 q 777 325 709 396 q 842 211 840 260 q 759 62 846 113 q 583 20 688 20 q 515 24 538 20 q 207 199 289 64 q 146 503 146 298 q 279 770 146 655 q 646 895 424 895 q 740 840 740 895 q 700 787 740 840 q 661 717 661 734 q 791 600 661 633 q 722 689 722 642 q 775 757 722 699 q 829 818 829 815 q 764 891 829 867 q 659 908 718 908 q 258 802 439 908 q 44 473 44 677 q 179 160 44 291 q 594 4 333 11 z "},"7":{"ha":1025,"x_min":42,"x_max":984,"o":"m 46 913 l 46 913 l 42 913 q 98 863 71 888 q 250 838 140 833 q 457 856 298 839 q 663 869 587 869 q 698 868 680 869 q 632 726 632 800 q 673 634 632 672 q 765 590 709 600 l 738 606 q 682 703 682 638 q 758 861 682 771 q 913 794 859 843 q 793 888 875 860 q 877 900 831 910 q 948 812 948 884 q 873 637 948 730 q 686 454 829 584 q 481 208 528 313 q 452 65 452 142 q 461 -22 452 24 l 467 7 q 466 24 466 15 q 500 157 466 73 q 541 237 524 214 q 761 447 587 300 q 958 665 918 579 q 984 774 984 720 q 850 921 984 909 q 742 903 791 926 q 663 908 704 908 q 460 891 595 908 q 258 873 326 873 q 46 913 127 873 z "},"8":{"ha":972,"x_min":46,"x_max":940,"o":"m 531 4 l 531 4 q 909 126 823 8 q 940 216 940 169 q 883 346 940 280 q 618 465 781 464 q 771 359 711 456 q 821 207 821 279 q 547 24 821 24 q 295 64 393 24 q 175 207 175 113 q 273 406 175 343 q 539 465 347 453 l 533 468 l 541 469 q 302 519 359 492 q 227 647 227 557 q 231 696 227 668 q 333 856 248 811 q 529 889 399 890 q 701 843 632 888 q 781 693 781 790 q 742 564 781 625 q 606 479 692 486 q 481 390 594 442 q 380 340 393 349 q 325 268 325 306 q 367 208 325 228 q 444 192 399 192 q 602 229 515 192 q 479 210 537 210 q 380 256 380 210 q 400 294 380 273 q 496 357 404 302 q 600 441 587 410 q 618 461 600 446 q 642 476 637 476 q 817 566 745 480 q 879 714 879 639 q 743 883 879 832 q 508 918 650 918 q 459 917 477 918 q 246 864 336 912 q 113 699 138 806 q 108 664 108 674 q 386 468 108 505 q 158 410 232 450 q 46 221 46 349 q 531 4 46 -1 z "},"9":{"ha":968,"x_min":41,"x_max":925,"o":"m 374 908 l 374 908 q 163 857 266 911 q 44 693 41 793 q 158 549 47 606 q 348 503 250 503 q 491 535 423 503 q 577 643 574 576 q 352 786 582 786 q 219 732 283 786 q 356 764 277 764 q 509 652 513 764 q 448 548 506 585 q 328 515 398 515 q 189 586 257 515 q 125 700 127 650 q 207 851 121 800 q 384 893 277 893 q 452 889 429 893 q 763 713 681 848 q 821 410 821 617 q 688 143 821 259 q 323 17 543 17 q 227 71 227 17 q 268 124 227 71 q 309 195 309 177 q 175 311 309 278 q 248 222 248 269 q 193 153 248 212 q 138 93 138 95 q 203 20 138 44 q 309 3 250 3 q 709 109 527 3 q 925 439 925 235 q 787 753 925 620 q 374 908 634 901 z "}," ":{"ha":384,"x_min":0,"x_max":0,"o":""},"!":{"ha":179,"x_min":6,"x_max":167,"o":"m 62 873 q 6 911 35 882 l 167 907 l 104 216 l 62 873 m 155 113 l 108 1 l 58 144 l 155 113 z "},"\"":{"ha":374,"x_min":52,"x_max":336,"o":"m 148 814 l 94 562 l 52 847 l 148 814 m 336 814 l 284 562 l 240 847 l 336 814 z "},"#":{"ha":696,"x_min":18,"x_max":675,"o":"m 277 460 l 452 461 l 448 385 l 258 385 l 277 460 m 332 671 l 171 676 q 223 639 199 646 l 213 498 l 36 498 l 115 460 l 209 461 l 203 385 l 18 385 l 98 346 l 199 346 l 177 75 l 248 346 l 444 346 l 423 75 l 494 346 l 656 346 l 577 385 l 503 385 l 523 460 l 675 461 l 594 498 l 531 498 l 577 671 l 417 676 q 467 639 444 646 l 457 498 l 288 498 l 332 671 z "},"$":{"ha":829,"x_min":24,"x_max":805,"o":"m 372 532 q 323 539 347 534 l 309 542 q 140 682 145 573 q 358 775 136 775 l 360 775 l 372 532 m 388 151 q 169 176 239 158 q 32 282 47 208 q 155 366 42 340 q 302 383 178 371 q 354 387 344 387 l 376 387 l 384 273 q 350 272 375 273 q 201 323 231 270 l 185 332 q 214 284 183 309 q 264 256 239 262 q 384 241 325 239 l 388 151 m 429 382 q 527 326 527 368 q 425 278 527 290 l 429 382 m 433 464 l 573 447 q 744 302 740 427 q 665 173 747 210 q 503 149 607 147 l 417 150 l 425 244 q 545 317 541 258 q 429 400 549 371 l 433 464 m 459 908 l 298 913 q 354 875 330 884 l 358 799 q 98 652 92 783 q 269 482 104 519 l 374 469 l 376 410 q 311 414 344 414 q 144 392 222 414 q 24 290 24 359 q 32 257 24 275 q 392 102 60 111 l 402 -122 l 415 102 l 444 102 q 682 138 605 102 q 787 332 794 191 q 614 503 781 465 l 439 524 l 454 774 q 610 747 557 768 q 732 582 724 703 q 746 660 734 596 q 805 750 760 733 l 781 750 q 644 794 725 750 q 454 802 515 802 l 459 908 z "},"%":{"ha":907,"x_min":26,"x_max":897,"o":"m 887 917 q 496 529 846 731 q 227 376 438 496 q 26 17 26 224 l 26 4 q 264 318 54 189 l 654 557 q 897 917 867 687 l 887 917 m 871 367 l 871 367 l 875 366 q 769 132 841 223 q 677 16 746 103 l 671 7 q 515 399 525 143 l 627 452 q 871 367 783 414 m 704 57 l 704 57 q 783 311 783 187 q 779 364 783 339 q 618 406 673 399 q 610 332 610 370 q 704 57 610 180 m 390 823 l 390 823 l 392 822 q 288 589 362 684 q 197 472 268 558 l 189 464 q 34 856 41 600 l 144 908 q 390 823 300 871 m 223 514 l 223 514 q 302 768 302 644 q 296 821 302 796 q 136 863 189 856 q 130 789 130 827 q 223 514 130 637 z "},"&":{"ha":972,"x_min":44,"x_max":929,"o":"m 309 293 l 309 293 l 304 293 q 358 240 330 269 q 439 211 397 211 q 529 228 477 211 l 527 228 q 670 138 545 197 q 798 78 796 80 q 592 25 779 25 q 317 61 425 25 q 173 208 173 109 q 271 406 173 343 q 537 465 345 453 l 531 468 l 539 469 q 300 519 357 492 q 225 647 225 557 q 229 696 225 668 q 330 855 246 811 q 525 889 395 889 q 627 868 573 889 q 692 798 698 840 q 556 727 686 781 q 423 659 426 673 q 484 606 418 631 q 585 579 536 585 q 486 637 481 604 q 596 681 505 652 q 728 725 712 718 q 802 802 802 758 q 675 895 802 863 q 457 917 573 920 q 243 865 336 914 q 111 699 134 806 q 106 664 106 672 q 384 468 106 505 q 156 410 230 450 q 44 221 44 349 q 529 4 44 4 q 744 20 626 4 q 917 81 913 42 q 791 158 919 98 q 627 243 649 225 q 710 292 631 272 q 720 293 706 292 q 750 300 740 297 q 781 301 769 301 q 929 231 865 301 q 758 349 865 349 q 732 347 741 349 q 579 298 695 342 q 423 262 484 262 q 309 293 356 262 z "},"'":{"ha":201,"x_min":52,"x_max":148,"o":"m 148 814 l 94 562 l 52 847 l 148 814 z "},"(":{"ha":553,"x_min":42,"x_max":629,"o":"m 42 243 q 173 -233 42 -33 q 569 -469 321 -460 q 140 289 140 -340 q 250 660 140 478 q 629 904 390 889 q 181 653 353 904 q 42 243 42 450 z "},")":{"ha":600,"x_min":-24,"x_max":565,"o":"m 565 243 l 565 243 q 433 -233 565 -32 q 38 -469 286 -460 q 467 289 467 -340 q 356 660 467 477 q -24 904 216 889 q 425 653 253 904 q 565 243 564 450 z "},"*":{"ha":610,"x_min":32,"x_max":583,"o":"m 583 549 q 523 593 577 563 l 479 616 q 454 632 467 624 q 457 648 457 642 q 454 665 457 657 q 479 681 460 669 q 583 749 579 739 q 572 749 578 749 q 494 737 550 749 l 444 726 q 410 721 418 721 q 358 743 387 734 l 342 796 q 315 844 331 831 q 284 796 300 836 l 262 742 q 209 721 231 734 q 177 728 163 728 q 150 730 168 728 l 106 737 q 32 747 35 748 q 96 703 39 730 l 140 681 q 167 665 141 679 q 163 648 163 659 q 167 631 163 639 l 140 616 q 32 550 37 562 q 104 559 58 549 q 177 570 154 570 q 209 576 163 570 q 262 555 231 561 q 315 453 302 461 q 358 555 348 513 q 410 576 387 561 l 583 549 m 507 725 l 507 725 q 553 736 533 733 q 446 682 489 701 q 429 707 439 696 l 441 711 l 446 711 q 507 725 452 711 m 313 818 l 313 818 q 336 746 330 772 q 311 747 318 747 q 286 746 300 747 q 313 818 304 790 m 366 721 l 366 721 q 380 715 372 720 q 368 713 376 714 q 366 721 368 717 m 402 704 q 431 669 421 689 q 404 657 417 663 q 362 668 386 665 q 372 697 372 682 q 402 704 383 701 m 433 653 l 433 653 l 433 644 q 425 648 429 646 q 433 653 431 652 m 553 561 q 446 585 454 585 l 441 585 l 429 589 q 446 615 439 600 q 467 606 455 612 l 553 561 m 342 726 l 342 726 q 348 705 346 717 q 311 688 328 699 q 273 705 294 699 q 277 726 275 715 q 311 729 294 729 q 342 726 328 729 m 325 676 l 325 676 q 346 688 336 684 q 342 671 346 679 q 325 676 338 673 m 356 654 q 380 648 368 653 q 356 643 368 644 q 352 648 354 644 l 356 654 m 404 640 l 404 640 q 431 627 417 635 q 402 593 421 607 q 372 600 383 596 q 362 629 372 615 q 404 640 385 633 m 240 715 l 240 715 q 252 721 248 720 l 252 713 q 240 715 248 714 m 275 688 l 275 688 q 294 676 283 684 q 279 671 288 671 q 275 688 275 679 m 319 659 q 328 648 322 653 q 319 639 323 643 l 302 639 q 294 648 296 643 q 302 659 296 653 l 319 659 m 342 625 l 342 625 q 346 608 346 618 l 325 619 q 342 625 332 624 m 368 585 l 368 585 q 380 581 375 583 l 366 576 q 368 585 368 581 m 250 697 l 250 697 q 256 668 252 682 q 217 657 237 664 q 189 671 202 663 q 219 704 199 689 q 250 697 237 701 m 264 654 l 264 654 q 267 648 267 652 q 264 643 267 645 q 240 648 252 644 q 264 654 252 653 m 279 625 l 279 625 q 294 619 290 624 l 275 608 q 279 625 275 618 m 311 610 l 311 610 q 348 591 328 600 q 342 571 346 581 q 311 568 328 568 q 277 571 294 568 q 273 591 275 582 q 311 610 294 600 m 189 708 l 191 708 q 173 684 179 697 q 155 692 171 684 l 115 710 q 64 733 102 716 q 173 713 137 721 l 179 713 l 189 708 m 185 653 q 197 648 189 652 q 185 643 189 646 l 185 653 m 217 640 l 217 640 q 256 629 235 633 q 250 600 252 615 q 219 593 237 596 q 189 627 199 607 q 217 640 202 635 m 252 585 l 252 585 l 252 576 l 240 581 q 252 585 246 582 m 336 550 l 313 479 q 286 550 294 525 l 336 550 m 173 614 l 173 614 q 191 589 179 600 l 179 583 l 173 583 q 64 562 79 572 q 173 614 96 583 z "},"+":{"ha":696,"x_min":34,"x_max":663,"o":"m 663 330 l 575 370 l 378 370 l 388 501 l 304 559 l 319 370 l 34 370 l 119 330 l 319 330 l 334 178 l 344 131 l 378 330 l 663 330 z "},",":{"ha":179,"x_min":36,"x_max":132,"o":"m 132 113 l 77 -139 l 36 146 l 132 113 z "},"-":{"ha":602,"x_min":32,"x_max":573,"o":"m 32 370 l 117 330 l 573 330 l 486 370 l 32 370 z "},".":{"ha":179,"x_min":40,"x_max":136,"o":"m 136 113 l 92 3 l 40 146 l 136 113 z "},"/":{"ha":907,"x_min":26,"x_max":897,"o":"m 887 917 q 496 529 846 731 q 227 376 438 496 q 26 17 26 224 l 26 4 q 264 318 54 189 l 654 557 q 897 917 867 687 l 887 917 z "},":":{"ha":179,"x_min":38,"x_max":140,"o":"m 134 114 l 90 3 l 38 146 l 134 114 m 140 458 l 92 349 l 44 492 l 140 458 z "},";":{"ha":179,"x_min":36,"x_max":142,"o":"m 132 114 l 77 -139 l 36 146 l 132 114 m 142 458 l 96 349 l 46 492 l 142 458 z "},"<":{"ha":923,"x_min":54,"x_max":873,"o":"m 873 543 q 429 493 640 543 q 54 332 196 437 q 781 160 314 170 l 850 228 q 767 224 811 224 q 102 347 422 216 q 618 483 339 483 q 654 482 637 483 q 813 467 769 477 l 873 543 z "},"=":{"ha":730,"x_min":42,"x_max":686,"o":"m 686 399 l 600 437 l 42 437 l 127 399 l 686 399 m 686 261 l 600 300 l 42 300 l 127 261 l 686 261 z "},">":{"ha":923,"x_min":54,"x_max":873,"o":"m 54 160 q 498 210 290 160 q 873 371 733 265 q 146 543 612 532 l 77 476 q 161 479 106 478 q 825 354 500 488 q 557 252 706 288 q 273 221 408 216 q 115 237 168 224 l 54 160 z "},"?":{"ha":722,"x_min":38,"x_max":684,"o":"m 431 114 l 336 147 l 388 4 l 431 114 m 555 568 l 555 568 q 684 747 684 679 q 500 890 684 825 q 292 914 419 920 q 157 895 224 911 q 38 793 38 865 q 111 710 38 751 q 231 676 148 690 q 362 664 307 664 q 406 665 386 664 l 368 675 q 231 703 296 679 q 146 774 151 732 l 144 790 q 142 802 142 796 q 328 900 142 893 q 492 879 442 904 q 583 790 571 839 q 581 753 587 774 q 425 559 567 699 q 313 370 313 448 q 465 200 313 278 l 477 208 q 390 318 413 243 q 386 379 379 354 q 555 568 401 434 z "},"@":{"ha":921,"x_min":30,"x_max":883,"o":"m 463 11 l 463 11 l 585 127 q 738 310 668 207 q 496 114 590 172 q 352 241 403 193 q 231 380 256 331 q 171 654 171 498 q 205 821 171 693 q 459 782 315 811 q 706 728 515 771 l 706 612 q 590 332 706 505 q 575 476 575 407 q 629 660 575 602 l 525 722 l 507 659 q 392 715 481 672 l 277 663 q 271 566 271 612 q 376 271 271 375 q 517 414 477 371 q 604 260 539 343 q 883 733 753 447 q 281 905 661 828 l 36 811 q 161 329 30 533 q 463 11 242 202 m 505 461 l 505 461 q 408 326 503 415 q 360 543 360 424 q 378 668 360 607 q 505 627 421 660 q 494 547 494 586 q 505 461 494 503 z "},"A":{"ha":1106,"x_min":42,"x_max":1133,"o":"m 1121 -196 l 1121 -196 l 1133 -195 q 938 272 1069 -69 q 1019 407 996 315 q 923 318 962 330 l 722 857 l 588 921 q 598 843 598 882 q 511 412 598 699 q 454 406 475 410 q 201 277 319 380 q 44 -58 52 146 q 108 -148 42 -115 q 223 -175 161 -175 q 439 -20 354 -175 q 588 367 495 81 l 726 296 q 865 249 811 252 q 1121 -196 931 122 m 675 676 q 821 335 731 518 l 734 374 q 600 410 674 400 l 675 676 m 481 385 l 481 385 q 492 383 486 385 q 376 17 401 90 l 376 20 q 173 -131 321 -131 q 71 -43 71 -131 q 215 197 71 50 q 336 298 242 225 q 463 382 414 359 q 481 385 469 385 z "},"B":{"ha":1060,"x_min":43,"x_max":1023,"o":"m 779 64 l 779 64 q 1023 228 1023 134 q 915 393 1023 338 q 648 457 834 435 q 911 515 834 481 q 1023 672 1023 566 q 819 825 1023 752 q 267 908 589 908 q 138 896 209 908 q 43 853 43 880 q 44 847 43 850 q 201 775 45 842 q 356 701 356 709 q 269 657 356 677 l 269 654 q 388 675 336 661 l 406 224 q 269 248 354 239 l 269 244 q 356 200 356 224 q 201 126 356 193 q 44 54 45 60 q 43 49 43 52 q 138 5 43 22 q 267 -7 208 -7 q 413 -3 342 -7 l 415 -40 l 419 -40 l 419 -1 q 779 64 598 11 m 382 800 l 382 800 l 382 781 l 231 819 q 159 857 156 839 q 269 889 164 889 q 362 888 310 889 q 382 800 381 817 m 846 359 l 846 359 q 889 233 889 323 q 708 85 889 150 q 421 20 565 33 l 429 149 q 457 186 457 167 q 435 212 457 199 l 475 878 q 734 812 613 860 q 889 672 889 751 q 846 549 889 583 q 557 468 770 488 q 469 460 535 466 l 477 458 q 465 452 475 456 q 555 446 479 455 q 846 359 775 417 m 406 136 l 406 136 l 413 18 q 269 12 344 12 q 165 46 174 12 q 269 96 160 62 q 406 136 297 104 z "},"C":{"ha":854,"x_min":32,"x_max":1436,"o":"m 1119 -195 q 1436 -119 1166 -187 l 1436 -117 q 1094 -183 1175 -177 l 1056 -186 q 1000 -189 1030 -188 q 865 -186 935 -191 q 677 -160 736 -178 q 146 297 256 -36 q 136 422 136 364 q 535 879 136 769 q 629 893 587 893 q 720 823 720 893 q 608 664 720 810 q 496 484 496 517 q 640 339 496 382 q 561 450 561 395 q 686 627 561 473 q 811 796 811 781 q 775 868 811 835 q 640 907 721 907 q 441 867 553 907 q 273 785 345 832 q 32 379 32 627 q 174 49 32 192 q 529 -151 307 -84 q 936 -208 718 -208 q 1058 -204 996 -208 l 1119 -195 z "},"D":{"ha":1048,"x_min":43,"x_max":1029,"o":"m 861 97 l 861 97 q 1027 488 1025 203 q 815 823 1029 722 q 267 908 635 908 q 138 896 209 908 q 43 853 43 880 q 44 847 43 850 q 201 775 45 842 q 356 701 356 709 q 269 657 356 677 l 269 654 q 388 675 336 661 l 406 224 q 269 248 354 239 l 269 244 q 356 200 356 224 q 201 126 356 193 q 44 54 45 60 q 43 49 43 52 q 138 5 43 22 q 267 -7 208 -7 q 413 -3 342 -7 l 415 -40 l 419 -40 l 419 -1 q 861 97 741 21 m 382 800 l 382 800 l 382 781 l 231 819 q 159 857 156 839 q 269 889 164 889 q 362 888 310 889 q 382 800 381 817 m 800 749 q 895 490 873 668 q 807 178 889 278 q 421 20 699 46 l 429 149 q 457 186 457 167 q 435 212 457 199 l 475 878 q 800 749 709 848 m 406 136 l 406 136 l 413 18 q 269 12 344 12 q 165 46 174 12 q 269 96 160 62 q 406 136 297 104 z "},"E":{"ha":923,"x_min":44,"x_max":1511,"o":"m 515 422 q 636 439 579 439 q 734 424 698 439 q 842 359 793 392 q 579 490 733 490 q 362 454 555 490 l 372 644 q 439 766 439 684 q 417 828 439 788 l 410 840 l 410 779 q 372 710 410 742 l 378 851 q 509 827 431 842 q 813 783 721 783 q 1117 904 1010 783 l 1080 885 q 929 833 1034 851 q 842 825 881 825 q 566 874 752 825 q 290 917 387 921 q 85 818 168 911 q 62 761 62 791 q 85 694 62 727 q 260 615 142 615 q 286 618 275 615 l 296 444 l 256 440 q 120 479 174 440 q 64 604 59 524 l 50 604 q 44 550 44 574 q 296 393 44 403 l 313 154 q 175 117 237 149 q 96 11 96 77 q 125 -45 96 -19 q 328 -136 206 -115 l 332 -191 l 344 -191 l 346 -138 q 432 -144 395 -144 q 774 -100 553 -144 q 1141 -52 1023 -52 q 1261 -60 1198 -52 q 1463 -113 1400 -78 l 1511 -139 q 1104 -9 1390 -9 q 694 -53 975 -9 q 388 -86 479 -86 l 346 -86 l 354 100 l 408 96 q 506 70 463 92 q 563 -5 563 41 l 563 -64 q 600 7 600 -4 q 517 127 600 88 q 362 157 454 157 l 354 157 l 362 400 l 477 411 l 519 422 l 515 422 m 271 860 l 271 860 l 281 675 q 225 671 252 671 q 100 737 123 671 q 94 768 94 755 q 113 807 94 791 q 271 860 180 859 m 313 103 l 313 103 l 323 -83 q 163 -35 227 -73 q 138 17 138 -20 q 205 87 138 64 q 313 103 252 103 z "},"F":{"ha":857,"x_min":42,"x_max":1521,"o":"m 515 401 q 636 416 579 416 q 734 404 698 416 q 842 340 795 370 q 577 469 733 469 q 431 449 548 469 l 435 532 q 581 714 581 581 q 565 761 581 729 l 565 732 q 524 646 565 684 q 439 596 488 612 l 454 846 q 706 804 596 825 q 1129 745 1014 745 q 1521 863 1360 745 l 1513 868 q 1298 798 1450 823 q 1169 787 1236 787 q 779 854 1042 787 q 410 913 551 913 q 96 781 216 913 q 67 708 67 749 q 148 567 67 628 q 229 528 191 534 q 338 517 292 517 l 346 517 l 350 432 q 313 424 330 428 l 254 419 q 237 418 245 418 q 118 458 172 418 q 62 583 57 503 l 48 583 q 42 529 42 553 q 321 372 42 376 l 354 378 l 382 -191 l 394 -191 l 429 387 l 477 392 l 521 401 l 515 401 m 330 848 l 330 848 l 344 578 q 290 576 321 576 q 96 672 130 576 q 99 728 90 687 q 119 775 107 768 q 330 848 202 840 z "},"G":{"ha":901,"x_min":44,"x_max":863,"o":"m 791 11 l 791 11 q 863 208 863 131 q 748 380 863 302 q 616 408 698 415 q 477 340 505 399 q 456 267 456 293 q 503 170 456 216 q 577 128 528 144 q 663 113 623 113 q 684 114 671 113 l 667 122 q 574 159 615 129 q 527 241 527 194 l 527 264 q 640 397 527 389 q 742 371 709 403 q 800 251 800 314 q 722 24 800 186 l 696 28 q 347 165 487 61 q 161 406 217 260 q 150 507 150 460 q 553 886 150 796 q 646 897 601 897 q 738 839 738 897 q 625 709 738 838 q 513 559 513 581 q 656 439 513 475 q 577 532 577 485 q 703 675 577 541 q 829 817 829 809 q 791 876 829 851 q 659 908 743 908 q 286 808 471 908 q 44 472 44 678 q 171 214 44 326 q 710 4 354 52 l 700 -16 q 629 -240 629 -153 q 724 -443 629 -349 l 734 -440 q 680 -307 694 -396 q 677 -231 673 -267 q 791 11 686 -165 z "},"H":{"ha":1060,"x_min":36,"x_max":1137,"o":"m 942 389 q 1137 429 1044 393 l 1129 436 q 958 414 1072 414 l 942 414 l 968 907 l 802 911 q 861 871 835 879 l 881 415 q 577 494 815 415 q 290 555 394 555 q 246 554 271 555 l 264 907 l 98 911 q 157 871 131 879 l 171 539 q 42 425 36 498 q 179 328 48 350 l 203 -122 l 207 -122 l 229 322 q 404 386 349 325 q 423 446 431 416 l 413 436 q 351 380 399 401 q 268 363 311 363 q 259 364 265 363 q 250 364 253 364 l 233 364 l 246 521 q 588 446 330 521 q 881 389 767 393 l 907 -122 l 913 -122 l 942 389 m 173 515 l 173 515 l 179 368 q 60 439 65 380 q 173 515 56 496 z "},"I":{"ha":256,"x_min":44,"x_max":207,"o":"m 153 -122 l 207 907 l 44 911 q 100 871 75 879 l 148 -122 l 153 -122 z "},"J":{"ha":215,"x_min":-775,"x_max":173,"o":"m 140 -36 l 173 843 l 67 904 l 73 -7 q -384 -310 75 -310 q -758 -184 -758 -310 q -705 -134 -758 -151 q -625 -123 -669 -123 q -461 -142 -570 -123 q -298 -160 -353 -160 q -102 -85 -142 -160 q -248 -111 -171 -111 q -418 -95 -305 -111 q -588 -79 -531 -79 q -705 -102 -652 -79 q -775 -187 -775 -132 q -610 -319 -775 -273 q -340 -351 -496 -351 q -10 -270 -152 -351 q 140 -61 140 -184 l 140 -36 z "},"K":{"ha":734,"x_min":42,"x_max":793,"o":"m 756 -292 l 756 -292 q 793 -357 771 -322 q 429 431 688 183 q 640 664 566 512 q 698 868 696 779 q 675 890 698 881 l 627 911 q 567 707 632 832 q 360 489 486 550 q 258 553 301 532 q 189 582 243 559 l 209 907 l 42 911 q 100 871 73 879 l 127 -283 l 132 -283 l 185 500 q 523 199 371 393 q 756 -292 700 -28 z "},"L":{"ha":596,"x_min":39,"x_max":1336,"o":"m 1069 -196 l 1069 -196 q 1336 -154 1208 -196 l 1328 -147 q 1125 -170 1265 -167 q 1010 -165 1059 -171 q 673 -89 905 -154 q 354 -28 471 -32 l 396 907 l 229 911 q 288 871 262 879 l 330 -28 q 94 -81 204 -28 q 44 -158 39 -107 q 227 -258 53 -241 q 396 -240 313 -267 q 458 -205 429 -229 q 494 -147 494 -176 q 494 -139 494 -143 l 481 -149 q 404 -203 467 -180 q 346 -216 374 -214 l 354 -68 q 708 -142 455 -81 q 1069 -196 934 -196 m 330 -65 l 330 -65 l 338 -218 q 292 -220 326 -221 q 62 -144 68 -213 q 106 -87 58 -104 q 275 -62 178 -62 q 330 -65 298 -62 z "},"M":{"ha":998,"x_min":44,"x_max":958,"o":"m 171 909 q 161 907 165 908 l 44 908 q 54 869 47 873 l 119 -122 l 123 -122 l 179 796 q 571 -9 578 521 q 573 -16 570 -14 q 581 -8 581 -20 l 596 243 q 597 269 597 254 q 557 461 597 361 q 817 729 729 576 l 869 -122 l 873 -122 l 958 913 l 811 909 q 805 886 811 902 q 804 884 804 885 q 811 876 804 880 q 740 724 773 777 q 535 510 665 606 q 467 635 505 575 q 179 908 405 732 q 173 913 177 911 l 171 909 z "},"N":{"ha":802,"x_min":44,"x_max":750,"o":"m 219 909 q 209 907 212 908 l 44 909 q 102 869 75 879 l 167 -122 l 171 -122 l 227 796 q 500 505 383 686 q 659 60 642 288 l 673 -146 l 677 -146 l 750 842 l 610 903 q 606 871 610 886 q 610 852 602 857 l 642 347 q 354 814 552 652 q 227 908 319 839 l 221 913 l 219 909 z "},"O":{"ha":785,"x_min":46,"x_max":736,"o":"m 509 241 l 509 241 q 736 714 631 429 q 246 888 554 810 l 46 791 q 344 5 67 304 q 509 241 458 164 m 590 707 l 590 707 l 590 593 q 368 114 590 433 q 159 635 159 357 q 185 800 159 673 q 390 761 277 789 q 590 707 424 753 z "},"P":{"ha":692,"x_min":46,"x_max":642,"o":"m 559 161 l 559 161 q 642 660 642 339 q 636 823 642 737 l 527 913 q 378 847 515 892 q 207 783 228 798 l 211 895 l 46 895 q 102 831 77 844 l 157 -460 l 161 -460 l 189 410 l 315 366 q 559 161 441 304 m 537 745 q 551 625 551 648 q 500 307 551 519 q 368 412 451 372 q 246 456 328 432 q 193 489 193 471 q 209 734 193 568 q 344 804 212 760 q 521 860 390 819 l 537 745 z "},"Q":{"ha":842,"x_min":38,"x_max":833,"o":"m 573 40 l 573 40 q 833 -92 634 -16 l 783 -57 q 673 8 731 -39 q 590 103 611 58 q 569 210 576 132 q 592 241 585 236 q 819 714 712 431 q 328 888 636 810 l 127 791 q 165 514 134 646 q 144 513 150 513 q 75 490 106 507 q 44 447 38 470 q 229 313 70 345 q 425 5 304 139 q 511 119 471 64 q 573 40 533 77 m 671 707 l 671 707 l 671 593 q 563 289 671 479 q 248 514 525 473 q 240 635 240 570 q 267 800 240 673 q 469 761 357 788 q 671 707 513 750 m 479 222 l 479 222 q 490 174 484 200 l 452 114 q 319 300 364 212 l 338 300 q 427 309 376 300 l 374 319 q 304 326 342 319 q 252 492 267 407 q 404 415 334 477 q 459 321 440 383 q 479 222 469 290 m 171 493 l 171 493 q 211 359 185 425 q 167 390 182 374 q 119 461 119 439 q 171 493 119 486 z "},"R":{"ha":696,"x_min":44,"x_max":980,"o":"m 551 22 l 551 22 q 980 -271 804 -228 q 623 16 813 -185 q 378 339 450 198 q 561 192 505 289 q 640 664 640 361 q 634 828 640 743 l 525 918 q 360 848 507 897 q 205 787 229 804 l 209 899 l 44 899 q 100 833 69 861 l 150 -321 l 155 -321 l 187 414 q 225 396 206 404 q 551 22 354 215 m 533 745 q 547 625 547 648 q 505 326 547 507 q 324 427 469 368 q 189 489 189 482 q 205 734 189 661 q 342 806 212 766 q 517 861 501 854 l 533 745 z "},"S":{"ha":950,"x_min":14,"x_max":938,"o":"m 863 710 q 938 852 885 827 q 901 851 913 851 q 789 880 835 851 l 744 909 q 503 920 574 920 q 102 720 94 920 q 302 496 109 545 l 659 450 q 857 261 851 426 q 775 92 861 139 q 577 60 711 57 q 183 97 293 65 q 30 233 50 136 q 173 342 42 308 q 344 367 210 351 q 404 371 379 371 q 561 346 490 371 q 602 293 604 330 q 398 222 598 231 q 301 235 347 220 q 225 292 244 254 l 207 304 q 236 239 202 271 q 300 199 264 211 q 459 179 382 172 q 627 281 623 195 q 577 358 629 332 q 352 411 471 411 q 159 380 257 411 q 14 245 14 336 q 24 201 14 225 q 193 31 46 79 q 511 -5 303 -5 q 795 51 700 -5 q 911 298 919 124 q 706 526 902 475 l 350 576 q 157 761 161 603 q 408 882 153 882 q 692 847 609 882 q 807 707 760 819 q 840 610 837 636 l 844 610 l 863 710 z "},"T":{"ha":952,"x_min":44,"x_max":1501,"o":"m 1109 743 l 1109 743 q 1501 861 1337 743 l 1489 867 q 1277 796 1430 821 q 1147 786 1215 786 q 758 854 1026 786 q 390 911 538 911 q 75 781 193 911 q 44 713 44 746 q 136 559 44 612 q 321 515 212 515 q 488 562 422 515 q 561 713 561 614 q 545 761 561 728 l 545 730 q 485 626 545 669 q 368 581 434 588 l 334 576 q 269 575 322 575 q 73 672 109 575 q 71 728 65 694 q 96 775 77 762 q 346 850 195 850 q 680 804 452 850 l 726 -191 l 738 -191 l 781 783 q 1109 743 981 743 z "},"U":{"ha":1023,"x_min":14,"x_max":1015,"o":"m 1008 854 l 1008 854 q 1015 861 1009 857 q 946 896 1001 865 q 895 917 908 917 q 883 908 884 917 q 877 733 877 791 q 886 528 877 665 q 895 323 895 392 q 783 94 895 153 q 513 53 705 53 q 262 87 339 53 q 144 289 144 140 q 158 520 144 366 q 173 751 173 674 q 171 843 173 753 q 175 851 171 848 l 177 851 l 177 850 l 179 851 q 171 856 175 852 q 24 917 56 917 q 14 913 14 917 l 14 908 q 67 510 64 791 q 127 144 70 243 q 515 -16 221 -16 q 897 131 796 -16 q 970 468 964 229 q 1008 854 978 751 z "},"V":{"ha":852,"x_min":40,"x_max":819,"o":"m 448 -35 l 448 -35 q 819 823 819 460 q 817 864 819 840 q 763 893 783 886 l 700 917 l 700 850 q 567 301 700 551 l 417 20 q 229 376 277 260 q 153 753 153 565 q 150 872 153 796 q 129 889 150 878 q 102 899 109 900 l 100 901 l 46 917 l 44 893 q 40 828 40 846 q 189 296 40 581 q 547 -192 323 41 l 551 -191 q 448 -35 487 -92 z "},"W":{"ha":1385,"x_min":40,"x_max":1354,"o":"m 427 -56 q 435 -75 435 -68 l 435 -77 l 439 -75 q 433 -66 437 -74 q 696 355 588 135 q 1080 -186 831 71 l 1084 -184 q 982 -29 1021 -86 q 1354 828 1354 464 q 1352 869 1354 846 q 1296 899 1320 890 l 1233 921 l 1233 854 q 1100 306 1233 553 l 948 24 q 738 444 785 307 q 821 819 821 643 q 819 864 821 839 q 763 893 784 885 l 700 917 l 700 850 q 623 414 700 611 q 415 5 596 345 q 229 370 284 229 q 153 753 153 567 q 150 872 153 802 q 129 890 150 880 q 100 899 108 900 l 100 901 l 46 917 q 40 818 40 848 q 149 345 40 581 q 425 -57 249 128 l 427 -56 z "},"X":{"ha":819,"x_min":12,"x_max":1642,"o":"m 1155 -119 l 1155 -119 q 1642 -138 1302 -138 q 1588 -127 1634 -127 l 1546 -127 l 1539 -129 l 1537 -129 l 1537 -132 l 1539 -132 l 1539 -129 l 1338 -119 q 800 9 985 -102 q 304 435 550 160 q 421 558 352 488 q 821 836 616 755 q 838 846 828 840 q 859 859 856 858 q 809 903 835 876 l 811 904 q 787 913 793 911 l 642 840 q 267 475 462 750 q 248 500 259 482 q 127 848 127 695 q 126 854 126 850 q 127 863 126 858 l 127 882 q 125 888 125 884 q 62 904 85 904 q 53 907 60 904 q 44 909 47 909 q 20 913 27 914 l 20 781 q 169 486 20 670 q 231 424 191 458 q 12 -12 85 205 q 56 49 37 18 q 267 392 111 207 q 724 17 513 139 q 1155 -119 904 -87 z "},"Y":{"ha":590,"x_min":40,"x_max":789,"o":"m 427 359 q 789 810 719 766 l 734 911 q 573 676 643 787 l 382 374 q 205 832 242 707 l 40 911 q 338 359 173 610 l 388 -453 l 392 -453 l 427 359 z "},"Z":{"ha":1044,"x_min":-201,"x_max":1493,"o":"m 1125 -52 l 1125 -52 q 1493 -139 1329 -52 q 1088 -9 1375 -9 q 687 -47 954 -9 q 286 -85 420 -85 q 12 -57 90 -85 l 229 132 q 840 408 546 408 q 929 387 880 408 q 1017 354 991 360 q 748 453 901 453 q 610 421 726 453 l 925 652 q 1233 904 1103 782 q 1102 851 1149 865 l 1042 833 l 984 828 l 921 825 q 625 868 817 821 q 330 917 426 917 q 140 875 227 917 q 44 762 44 829 q 121 649 44 688 q 264 618 183 618 q 401 650 347 618 q 469 766 469 690 q 437 839 469 779 q 410 726 437 761 q 227 673 369 673 q 81 777 81 673 q 159 838 81 812 q 284 859 223 859 q 606 818 387 859 q 929 783 814 779 l 596 497 q 388 367 445 367 q 262 403 314 367 q 191 511 207 441 l 181 511 q 400 322 181 336 l -14 -41 q -96 26 -73 4 q -40 -65 -94 -18 q -201 -208 -181 -160 l -16 -78 q 132 -125 23 -105 q 298 -143 231 -143 q 712 -97 437 -143 q 1125 -52 986 -52 z "},"[":{"ha":477,"x_min":40,"x_max":392,"o":"m 73 -443 l 73 -450 l 64 -450 l 64 -444 l 73 -443 m 60 -450 l 388 -460 l 388 -359 q 317 -421 358 -372 l 73 -443 l 140 799 q 237 813 164 804 l 244 814 q 392 872 334 823 l 40 873 l 64 -444 l 60 -444 l 60 -450 z "},"\\":{"ha":915,"x_min":26,"x_max":897,"o":"m 34 917 q 300 614 75 749 l 694 376 q 897 17 897 224 l 897 4 q 659 319 869 189 q 269 557 576 364 q 26 917 59 694 l 34 917 z "},"]":{"ha":477,"x_min":40,"x_max":392,"o":"m 356 -443 l 356 -450 l 366 -450 l 366 -444 l 356 -443 m 372 -450 l 44 -460 l 44 -359 q 115 -421 73 -372 l 356 -443 l 292 799 q 187 814 265 803 q 40 872 89 828 l 392 873 l 366 -444 l 372 -444 l 372 -450 z "},"^":{"ha":378,"x_min":43,"x_max":334,"o":"m 334 729 q 191 899 316 842 l 187 893 l 191 896 q 43 720 43 840 q 44 701 43 711 l 134 725 q 117 762 117 739 q 173 878 117 810 q 260 728 260 814 l 260 704 l 334 729 z "},"_":{"ha":1123,"x_min":-71,"x_max":1208,"o":"m -71 -422 l 14 -461 l 1208 -461 l 1121 -422 l -71 -422 z "},"`":{"ha":380,"x_min":32,"x_max":348,"o":"m 229 789 l 348 555 l 32 833 l 229 789 z "},"a":{"ha":352,"x_min":32,"x_max":323,"o":"m 279 214 l 279 214 q 323 396 279 339 l 233 464 q 219 401 225 433 q 132 454 193 416 l 36 400 q 32 302 32 353 q 117 5 32 114 q 225 143 198 102 q 307 -1 254 54 q 279 214 279 119 m 205 285 l 205 285 q 215 200 205 240 q 146 75 212 157 q 111 281 111 168 q 121 400 111 343 q 215 363 157 392 q 205 285 205 322 z "},"b":{"ha":323,"x_min":-20,"x_max":292,"o":"m 207 7 l 207 7 q 292 306 292 115 q 284 403 292 351 l 189 457 q 111 385 145 419 l 134 685 l -20 685 q 38 643 12 653 l 71 -39 l 79 -39 l 94 149 q 207 7 121 111 m 201 401 l 201 401 q 211 283 211 343 q 177 78 211 171 q 98 205 113 154 l 108 338 q 201 401 167 386 z "},"c":{"ha":258,"x_min":32,"x_max":233,"o":"m 115 400 l 115 400 q 233 328 150 380 l 211 372 q 125 456 196 389 l 36 383 q 32 300 32 342 q 119 7 32 117 q 219 208 219 107 l 219 237 q 111 86 169 97 q 92 211 92 136 q 115 400 92 294 z "},"d":{"ha":348,"x_min":-484,"x_max":360,"o":"m 30 450 l 30 335 q 38 175 30 229 q 106 12 54 69 l 106 9 l 115 4 l 121 16 q 219 135 163 62 l 219 8 l 360 8 q 298 54 325 43 l 273 682 q -113 913 263 913 q -315 893 -219 913 q -484 793 -484 859 q -475 766 -481 789 q -313 714 -444 714 q -176 725 -267 714 q -40 736 -85 736 q 75 718 23 736 q -81 772 43 772 q -256 753 -111 772 q -344 746 -307 746 q -444 775 -415 746 q -452 790 -452 783 q -334 869 -452 844 q -148 888 -248 888 q 185 777 114 888 q 219 661 219 724 l 219 364 q 24 454 153 424 l 30 450 m 219 315 l 219 315 l 219 182 q 140 75 201 142 q 104 332 104 163 l 104 393 q 219 315 163 371 z "},"e":{"ha":271,"x_min":32,"x_max":240,"o":"m 92 176 l 92 176 q 240 326 240 258 q 211 379 240 357 q 121 453 196 397 l 34 380 q 32 318 32 350 q 127 4 32 122 q 227 208 227 106 l 227 235 q 115 85 175 92 q 92 176 98 122 m 167 372 l 167 372 q 185 326 185 351 q 92 203 185 268 q 115 400 90 289 q 167 372 137 393 z "},"f":{"ha":313,"x_min":-106,"x_max":791,"o":"m 654 729 l 654 729 q 739 743 701 729 q 791 799 791 762 q 675 895 791 864 q 477 917 591 917 q 156 857 277 917 q 28 659 21 789 l 34 546 l -12 543 q -98 579 -86 539 l -106 579 q 36 504 -100 507 l 75 -237 l 94 -229 l 117 510 l 189 522 l 185 528 l 177 526 l 181 521 q 319 543 254 543 q 404 530 368 543 q 494 482 428 522 q 269 585 404 585 q 121 561 231 585 l 121 627 q 224 847 121 784 q 477 897 307 897 q 663 878 576 897 q 779 799 779 851 q 706 761 779 761 q 556 779 656 761 q 406 798 456 798 q 244 713 288 798 q 366 758 294 758 q 510 744 414 758 q 654 729 606 729 z "},"g":{"ha":380,"x_min":-454,"x_max":315,"o":"m 298 97 l 298 97 l 315 422 l 235 468 l 235 364 q 46 446 165 418 q 40 441 40 446 q 44 211 40 254 q 127 -3 58 65 l 134 9 q 235 121 169 47 l 235 -205 q -121 -421 235 -421 q -433 -335 -433 -421 q -328 -290 -433 -290 q -195 -303 -283 -290 q -62 -315 -107 -315 q 92 -261 64 -315 q -24 -281 38 -281 q -160 -270 -69 -281 q -296 -258 -251 -258 q -400 -277 -354 -258 q -454 -336 -454 -300 q -313 -435 -454 -403 q -96 -457 -214 -457 q 148 -392 20 -457 q 290 -225 293 -318 q 298 97 287 -106 m 235 313 l 235 313 l 235 171 q 153 68 235 157 q 115 277 113 164 l 117 387 q 235 313 175 366 z "},"h":{"ha":321,"x_min":-24,"x_max":360,"o":"m 338 -390 l 338 -390 l 352 -407 l 360 -404 q 248 93 248 -193 q 284 403 248 248 l 189 457 l 108 383 l 132 685 l -24 685 q 36 642 10 652 l 69 -41 l 77 -41 l 108 336 q 183 392 153 374 q 338 -390 173 -240 z "},"i":{"ha":179,"x_min":-4,"x_max":146,"o":"m 90 492 l 138 615 l 34 652 l 90 492 m 96 -11 l 146 443 l -4 443 q 48 411 14 421 l 87 -11 l 96 -11 z "},"j":{"ha":199,"x_min":-632,"x_max":146,"o":"m 83 494 l 136 616 l 30 656 l 83 494 m 119 -140 l 119 -140 l 146 446 l -12 446 q 42 414 6 424 l 64 -142 q 32 -253 67 -201 q -302 -361 -41 -361 q -486 -343 -401 -361 q -604 -262 -604 -318 q -496 -218 -604 -218 q -408 -225 -462 -218 q -233 -243 -269 -243 q -79 -191 -106 -243 q -193 -208 -131 -208 q -330 -197 -239 -208 q -467 -186 -421 -186 q -625 -250 -588 -186 l -632 -268 q -467 -366 -632 -332 q -269 -386 -367 -386 q 119 -140 106 -386 z "},"k":{"ha":346,"x_min":-26,"x_max":511,"o":"m 225 121 l 225 121 q 309 342 309 201 q 302 416 309 378 l 209 457 q 108 367 144 404 l 132 689 l -26 689 q 36 647 10 657 l 69 -37 l 77 -37 l 96 205 q 356 -39 197 57 q 507 -109 446 -92 l 511 -103 q 225 121 346 -32 m 221 401 l 221 401 q 227 325 227 364 q 191 168 227 237 q 108 323 139 244 q 221 401 181 385 z "},"l":{"ha":179,"x_min":-4,"x_max":146,"o":"m 123 -79 l 146 692 l -4 692 q 54 648 29 659 l 115 -79 l 123 -79 z "},"m":{"ha":507,"x_min":-4,"x_max":471,"o":"m 431 -4 l 471 383 l 406 441 q 300 345 364 390 q 250 437 294 424 l 244 444 q 140 349 202 393 l 153 444 l -4 444 q 50 412 16 424 l 92 -8 l 100 -8 l 132 271 q 213 347 145 313 q 260 -4 262 240 l 267 -4 l 298 273 q 376 346 312 314 q 423 -4 425 240 l 431 -4 z "},"n":{"ha":342,"x_min":-4,"x_max":307,"o":"m 267 -16 q 307 383 281 66 l 242 441 q 140 346 203 390 l 150 444 l -4 444 q 50 412 14 424 l 90 -9 l 98 -9 l 132 257 q 213 346 138 307 q 258 -16 252 260 l 267 -16 z "},"o":{"ha":342,"x_min":32,"x_max":313,"o":"m 233 134 q 313 364 288 224 q 119 452 240 414 l 32 397 q 155 3 38 143 l 163 17 l 233 134 m 231 361 l 231 361 q 233 310 233 335 q 177 69 233 192 q 111 332 111 186 q 115 400 111 367 q 231 361 157 392 z "},"p":{"ha":354,"x_min":-6,"x_max":323,"o":"m 237 3 l 237 3 q 323 301 323 111 q 317 399 323 347 l 225 453 q 146 382 179 414 l 150 441 l -6 441 q 54 400 29 410 l 87 -282 l 96 -282 l 127 143 q 237 3 155 104 m 231 397 l 231 397 q 242 278 242 338 q 209 72 242 165 q 132 199 147 146 l 142 332 q 231 397 198 380 z "},"q":{"ha":342,"x_min":32,"x_max":311,"o":"m 32 450 l 32 450 l 32 330 q 111 7 32 96 l 111 -9 l 123 11 l 233 153 l 233 195 l 223 195 q 142 71 220 165 q 106 328 106 158 l 106 389 q 217 311 163 367 l 246 -286 l 254 -286 l 311 439 l 219 461 l 219 447 q 217 421 217 435 l 217 363 q 32 450 155 419 z "},"r":{"ha":328,"x_min":10,"x_max":294,"o":"m 242 431 l 242 431 l 294 380 q 256 256 267 302 q 213 354 248 311 q 119 269 135 317 l 94 -21 l 56 414 q 10 436 26 422 l 140 436 l 127 330 q 242 431 200 382 z "},"s":{"ha":408,"x_min":10,"x_max":398,"o":"m 150 4 q 398 132 185 71 q 113 317 252 208 q 237 361 153 342 q 286 252 271 335 l 294 252 q 330 385 300 351 l 250 443 q 150 367 216 394 q 10 319 124 358 q 300 143 153 216 q 165 89 264 113 q 122 170 122 117 q 123 184 122 177 l 113 184 q 71 62 98 134 l 150 4 z "},"t":{"ha":203,"x_min":-191,"x_max":392,"o":"m 382 494 l 382 494 l 384 492 l 392 494 q 183 581 330 581 q 132 578 157 581 l 136 689 l -20 689 q 38 646 12 656 l 46 559 q -96 541 -39 541 q -183 576 -173 541 l -191 575 l -187 558 q -44 501 -159 501 q 50 509 0 501 l 102 -83 l 111 -83 l 132 526 q 240 539 187 539 q 382 494 332 539 z "},"u":{"ha":358,"x_min":32,"x_max":330,"o":"m 284 204 l 284 204 q 330 385 284 326 l 237 453 q 209 271 209 357 q 217 187 209 229 q 148 61 217 144 q 106 250 106 142 q 130 400 106 323 l 34 453 q 32 351 32 400 q 121 -7 32 110 q 231 132 201 89 q 311 -16 262 41 q 284 204 284 109 z "},"v":{"ha":378,"x_min":32,"x_max":346,"o":"m 185 14 l 185 14 l 191 0 q 346 386 330 134 l 258 452 q 262 389 262 415 q 173 65 262 203 q 117 314 117 211 q 136 397 117 366 l 32 456 l 32 412 q 185 14 32 142 z "},"w":{"ha":553,"x_min":28,"x_max":523,"o":"m 235 444 l 235 444 q 235 366 237 436 q 159 61 231 184 q 106 313 106 208 q 123 397 106 363 l 30 457 q 28 416 28 436 q 171 5 28 140 l 175 -5 q 277 175 240 52 q 380 11 317 68 l 384 -1 q 523 389 509 136 l 441 457 q 446 393 446 418 q 364 64 446 204 q 315 315 315 211 q 332 401 315 367 l 240 460 q 235 444 235 452 z "},"x":{"ha":386,"x_min":12,"x_max":374,"o":"m 346 11 l 346 11 l 366 0 l 374 5 q 205 196 273 60 q 360 374 312 350 l 317 450 q 179 249 252 366 q 136 387 163 290 l 12 452 q 148 196 77 297 q 62 17 83 71 l 42 -37 l 52 -39 q 177 154 104 50 q 231 94 184 141 q 346 11 299 26 z "},"y":{"ha":317,"x_min":-398,"x_max":294,"o":"m 271 -227 l 294 408 l 219 454 l 221 176 q 146 71 221 164 q 108 357 108 175 q 121 446 108 418 l -28 446 q 44 414 12 424 l 44 289 q 117 7 44 134 l 117 -4 q 221 125 189 83 l 221 -207 q -106 -432 221 -432 q -378 -339 -378 -432 q -281 -293 -378 -293 q -163 -306 -241 -293 q -46 -318 -85 -318 q 96 -262 67 -318 q -10 -282 46 -282 q -132 -272 -51 -282 q -254 -261 -214 -261 q -342 -279 -298 -261 q -398 -340 -398 -302 q -275 -436 -398 -403 q -75 -461 -182 -461 q 144 -411 41 -461 q 271 -244 271 -349 l 271 -227 z "},"z":{"ha":413,"x_min":12,"x_max":400,"o":"m 67 14 q 199 22 127 22 q 321 -3 290 22 l 382 85 q 309 180 338 104 l 300 179 q 302 142 302 157 q 264 56 302 65 q 199 52 227 52 q 113 65 141 52 q 400 443 262 237 l 348 436 q 217 428 286 428 q 87 452 123 428 l 20 358 q 87 250 62 359 l 96 250 q 94 297 94 273 q 125 387 94 366 q 215 393 179 393 q 275 387 250 393 l 167 214 q 12 5 131 156 l 67 14 z "},"{":{"ha":515,"x_min":46,"x_max":477,"o":"m 77 211 l 73 215 l 60 210 l 71 205 q 77 211 75 208 m 197 78 q 207 14 207 50 q 175 -131 207 -50 q 123 -323 123 -262 q 207 -441 123 -392 q 309 -458 247 -465 q 396 -376 396 -449 q 343 -276 396 -313 q 231 -239 298 -244 l 209 -232 q 317 -236 264 -225 q 469 -355 463 -267 q 336 -468 477 -450 q 193 -452 250 -479 q 48 -289 48 -382 q 90 -144 48 -231 q 150 45 151 -16 q 134 104 149 71 q 56 208 99 178 l 60 210 l 54 212 q 132 317 97 242 q 148 376 147 350 q 87 566 149 437 q 46 710 46 651 q 191 872 46 805 q 334 889 250 899 q 467 778 475 871 q 315 659 460 690 q 207 653 254 646 l 229 660 q 321 684 279 663 q 386 750 374 709 q 394 798 394 777 q 307 879 394 869 q 207 864 243 886 q 121 745 121 812 q 173 551 121 684 q 205 407 205 470 q 193 343 205 372 q 77 211 137 253 q 197 78 136 171 z "},"|":{"ha":348,"x_min":24,"x_max":360,"o":"m 219 364 l 219 364 l 203 643 q 144 685 177 653 l 298 685 l 281 469 l 298 54 q 360 8 325 43 l 219 8 l 219 135 q 121 16 163 62 l 115 4 l 106 9 l 106 12 q 38 175 54 69 q 30 335 30 229 l 30 450 l 24 454 q 219 364 153 424 m 219 315 q 104 393 163 371 l 104 332 q 140 75 104 163 q 219 182 201 142 l 219 315 z "},"}":{"ha":503,"x_min":19,"x_max":450,"o":"m 417 218 l 425 212 l 435 216 l 423 222 l 417 218 m 298 85 q 417 218 366 180 q 300 350 360 260 q 290 414 290 378 q 323 558 290 475 q 374 751 374 688 q 368 786 374 772 q 290 869 350 833 q 187 886 250 894 q 102 804 102 877 q 154 703 102 740 q 267 667 197 671 l 290 660 q 181 664 234 653 q 28 783 35 694 q 163 896 21 878 q 304 879 247 907 q 450 717 450 809 q 408 572 450 659 q 348 383 347 443 q 362 323 349 353 q 441 220 395 252 l 435 216 l 439 215 q 360 111 393 183 q 346 52 347 82 q 406 -138 345 -8 q 448 -282 448 -224 q 302 -444 448 -377 q 161 -461 243 -471 q 26 -350 19 -444 q 179 -231 33 -262 q 288 -225 237 -218 l 264 -232 q 172 -256 216 -235 q 106 -322 117 -282 q 100 -370 100 -345 q 185 -452 100 -442 q 288 -436 250 -458 q 366 -351 346 -401 q 372 -317 372 -338 q 321 -123 372 -254 q 288 21 288 -40 q 298 85 288 56 z "},"~":{"ha":829,"x_min":40,"x_max":789,"o":"m 787 673 q 618 615 706 615 q 455 648 563 615 q 292 681 348 681 q 48 564 189 681 l 40 557 q 231 632 132 632 q 391 603 286 632 q 551 574 496 574 q 789 669 670 574 l 787 673 z "},"¡":{"ha":179,"x_min":4,"x_max":165,"o":"m 108 -155 q 165 -193 137 -164 l 4 -189 l 71 501 l 108 -155 m 20 606 l 67 717 l 117 574 l 20 606 z "},"¢":{"ha":1487,"x_min":44,"x_max":1463,"o":"m 1269 98 l 1269 98 q 1463 114 1340 98 q 1294 306 1410 225 q 1304 370 1304 338 q 1181 604 1304 508 q 929 717 1081 682 q 756 913 873 825 q 571 717 629 839 q 321 604 419 682 q 199 370 199 507 q 209 304 199 335 q 44 113 90 222 q 237 98 153 98 q 366 106 304 98 q 752 3 527 3 q 1137 106 978 3 q 1269 98 1200 98 m 752 852 l 752 852 q 867 729 825 798 q 752 736 810 736 q 640 729 694 736 q 752 852 680 798 m 954 667 l 954 667 q 1149 562 1072 631 q 1242 370 1242 478 q 1240 340 1242 357 q 944 446 1109 416 q 970 575 970 509 q 954 667 970 619 m 889 684 l 889 684 q 911 575 911 629 q 883 453 911 513 q 754 461 819 461 q 623 453 688 461 q 596 575 596 513 q 616 684 596 631 q 752 696 682 696 q 889 684 823 696 m 1279 260 l 1279 260 q 1381 144 1343 207 q 1269 139 1326 139 q 1185 143 1227 139 q 1279 260 1250 196 m 923 407 l 923 407 q 1229 293 1099 376 q 1117 150 1200 212 q 795 267 928 179 q 923 407 879 329 m 754 421 l 754 421 q 863 415 806 421 q 752 296 823 350 q 642 415 684 350 q 754 421 702 421 m 535 575 l 535 575 q 563 444 535 509 q 262 339 395 415 q 260 370 260 353 q 355 562 260 479 q 551 667 432 631 q 535 575 535 619 m 752 236 l 752 236 q 1065 118 885 151 q 752 43 928 43 q 439 118 574 43 q 752 236 618 150 m 581 406 q 710 267 627 329 q 388 150 573 178 q 275 290 304 211 q 581 406 404 376 m 225 256 l 225 256 q 317 143 256 195 q 237 139 277 139 q 127 144 181 139 q 225 256 165 204 z "},"£":{"ha":1336,"x_min":39,"x_max":1336,"o":"m 330 -28 l 330 -28 l 410 345 l 256 340 l 233 375 l 417 375 l 427 424 l 205 421 l 157 461 l 427 460 q 368 579 422 476 q 325 726 328 657 q 752 922 317 922 q 1010 913 843 922 q 1177 856 1096 856 q 1217 857 1198 856 q 1137 717 1166 833 q 1117 618 1130 687 l 1113 618 q 1078 714 1109 647 q 954 851 1027 823 q 652 885 865 885 q 486 851 576 885 q 384 766 384 813 q 425 632 384 713 q 500 463 482 521 l 844 476 l 901 415 l 498 428 l 484 372 l 923 359 l 982 302 l 477 330 l 354 -28 q 673 -89 471 -32 q 1010 -165 905 -154 q 1125 -170 1059 -171 q 1328 -147 1265 -167 l 1336 -154 q 1069 -196 1208 -196 q 708 -142 934 -196 q 354 -68 455 -81 l 346 -216 q 404 -203 374 -214 q 481 -149 467 -180 l 494 -139 q 494 -147 494 -143 q 458 -205 494 -176 q 396 -240 429 -229 q 227 -258 313 -267 q 44 -158 53 -241 q 94 -81 39 -107 q 330 -28 204 -28 m 330 -65 q 275 -62 298 -62 q 106 -87 178 -62 q 62 -144 58 -104 q 292 -220 68 -213 q 338 -218 326 -221 l 330 -65 z "},"¤":{"ha":854,"x_min":-326,"x_max":1360,"o":"m 573 395 q 555 485 544 433 q 704 652 562 517 q 848 802 846 787 q 850 819 850 808 q 773 878 850 871 q 677 872 730 882 q 189 479 271 801 l 207 473 q 454 397 295 443 q 537 393 485 392 q 573 395 557 394 m -221 378 q -75 342 -185 347 q 6 357 -33 340 q -148 386 -100 386 q -221 378 -185 386 m 54 395 q 62 412 60 403 l 73 421 l 73 425 q 83 464 77 443 q -85 497 -34 497 q -209 471 -152 497 q -242 415 -244 454 q -235 395 -240 404 q -106 424 -173 424 q 54 395 -44 424 m 431 252 q 173 302 332 252 q 600 -170 227 -16 q 781 -213 659 -194 q 970 -231 892 -231 l 1008 -231 q 1360 -197 1113 -231 l 1360 -200 q 1031 -244 1119 -237 l 968 -249 q 523 -174 721 -242 q 155 74 278 -90 q 62 339 60 199 l 42 346 q -83 297 -6 297 q -248 370 -215 297 q -304 304 -308 347 q -138 231 -300 238 q -56 244 -93 229 q 0 301 -12 263 l 12 313 q -60 207 18 242 q -183 189 -119 181 q -321 292 -313 206 q -254 385 -326 348 q -258 403 -258 392 q -219 481 -262 453 q -44 534 -138 534 q 100 510 14 534 q 581 869 208 776 q 785 890 697 899 q 913 839 867 883 q 931 765 939 806 q 773 608 928 747 q 612 446 618 469 q 610 427 610 436 q 616 399 610 412 q 686 415 658 404 l 694 404 q 623 383 667 393 q 667 328 638 357 q 590 376 616 349 q 494 363 541 368 q 217 421 389 363 l 181 433 q 171 353 175 395 q 392 286 318 296 q 475 282 430 281 q 623 304 576 285 l 632 293 q 431 252 570 267 z "},"¥":{"ha":684,"x_min":40,"x_max":789,"o":"m 71 239 l 346 239 l 340 325 l 207 325 l 121 364 l 336 364 q 40 911 171 612 l 205 832 q 382 374 242 707 l 573 676 q 734 911 643 787 l 789 810 q 429 364 719 766 l 575 364 l 663 325 l 425 325 l 421 239 l 525 239 l 612 200 l 421 200 l 392 -453 l 388 -453 l 348 200 l 157 200 l 71 239 z "},"¦":{"ha":1042,"x_min":130,"x_max":911,"o":"m 130 0 l 911 0 l 911 921 l 130 921 l 130 0 m 258 87 l 258 833 l 779 833 l 779 87 l 258 87 z "},"§":{"ha":950,"x_min":54,"x_max":867,"o":"m 191 249 q 132 153 132 193 q 201 94 132 109 q 565 65 313 71 q 806 194 806 59 q 746 300 806 255 q 629 347 694 338 l 307 390 q 125 596 134 435 q 144 646 124 631 q 111 758 113 692 q 473 943 104 943 q 692 933 513 943 q 833 880 771 880 l 867 880 q 798 750 819 861 q 781 657 797 748 l 777 657 q 748 747 777 679 q 625 882 705 850 q 388 908 558 908 q 161 798 156 908 q 336 627 166 659 q 656 581 391 616 q 842 371 837 532 q 838 294 843 315 q 857 208 854 258 q 729 45 861 98 q 505 7 634 7 q 229 39 327 7 q 54 203 67 92 q 191 249 77 212 m 177 608 q 350 464 197 493 q 671 418 358 463 q 789 355 753 395 q 614 510 777 488 l 292 553 q 177 608 220 571 z "},"¨":{"ha":684,"x_min":106,"x_max":579,"o":"m 531 800 l 475 960 l 579 924 l 531 800 m 163 803 l 106 962 l 211 926 l 163 803 z "},"©":{"ha":899,"x_min":38,"x_max":861,"o":"m 861 715 l 861 715 q 277 888 644 810 l 38 793 q 392 8 62 306 q 588 241 527 163 q 861 715 737 431 m 690 595 q 423 110 690 432 q 236 345 293 235 q 169 636 169 474 q 201 803 169 675 q 448 764 302 793 q 690 710 522 748 l 690 595 m 511 599 l 511 599 l 494 632 q 406 713 473 650 l 319 643 q 313 559 313 600 q 402 268 313 375 q 500 468 500 366 l 500 471 q 388 340 454 349 q 366 471 366 392 q 392 667 366 555 q 511 599 429 647 z "},"ª":{"ha":352,"x_min":32,"x_max":323,"o":"m 279 589 q 323 673 279 616 l 233 742 q 219 679 225 711 l 132 732 l 36 677 q 32 581 32 631 q 46 475 32 506 q 117 380 53 459 q 225 518 157 425 q 307 374 254 429 q 279 589 279 494 m 213 581 l 211 585 q 215 575 215 579 q 146 450 215 534 q 121 501 142 458 q 111 558 111 523 q 121 677 111 621 q 215 640 157 669 q 211 625 211 624 q 213 581 211 576 z "},"«":{"ha":869,"x_min":113,"x_max":829,"o":"m 113 160 q 333 216 230 160 q 496 371 437 273 q 157 543 374 532 l 123 476 q 163 479 138 478 q 473 354 319 488 q 366 264 430 302 q 215 221 285 215 q 142 237 163 225 l 113 160 m 113 160 q 333 216 230 160 q 496 371 437 273 q 157 543 374 532 l 123 476 q 163 479 138 478 q 473 354 319 488 q 366 264 430 302 q 215 221 285 215 q 142 237 163 225 l 113 160 m 446 160 q 666 216 564 160 q 829 371 768 272 q 490 543 706 532 l 457 476 q 496 479 481 479 q 807 354 654 488 q 700 264 762 301 q 549 221 619 215 q 475 237 497 225 l 446 160 z "},"¬":{"ha":1042,"x_min":130,"x_max":911,"o":"m 130 0 l 911 0 l 911 921 l 130 921 l 130 0 m 258 87 l 258 833 l 779 833 l 779 87 l 258 87 z "},"®":{"ha":899,"x_min":38,"x_max":861,"o":"m 392 8 l 392 8 q 588 241 527 163 q 861 715 737 431 q 275 888 644 810 l 38 793 q 392 8 62 306 m 307 240 q 169 636 169 415 q 201 803 169 675 q 448 764 302 793 q 690 710 522 748 l 690 595 q 555 283 690 479 q 515 318 531 300 q 404 471 437 428 q 454 437 444 458 q 486 611 486 515 l 486 675 l 437 718 q 394 689 429 702 l 340 669 l 340 705 l 267 705 q 288 673 273 694 l 307 240 m 332 504 q 441 363 374 437 q 496 306 491 309 q 551 277 515 288 q 423 110 497 197 q 313 229 360 171 l 321 229 l 332 504 m 435 640 q 439 596 439 603 q 427 494 439 555 q 378 521 425 498 q 336 543 349 534 q 340 637 336 618 q 380 660 342 647 l 431 677 l 435 640 z "},"°":{"ha":559,"x_min":94,"x_max":465,"o":"m 338 940 l 338 970 l 273 982 q 207 991 250 986 q 199 950 199 966 q 267 821 199 879 q 338 940 338 900 m 465 994 q 254 757 389 866 q 94 1021 104 857 l 203 1053 q 465 994 375 1023 z "},"±":{"ha":696,"x_min":34,"x_max":663,"o":"m 663 330 l 575 370 l 378 370 l 388 501 l 304 559 l 319 370 l 34 370 l 119 330 l 319 330 l 334 178 l 344 131 l 378 330 l 663 330 m 79 107 l 165 68 l 621 68 l 533 107 l 79 107 z "},"²":{"ha":1042,"x_min":130,"x_max":911,"o":"m 130 0 l 911 0 l 911 921 l 130 921 l 130 0 m 258 87 l 258 833 l 779 833 l 779 87 l 258 87 z "},"³":{"ha":1042,"x_min":130,"x_max":911,"o":"m 130 0 l 911 0 l 911 921 l 130 921 l 130 0 m 258 87 l 258 833 l 779 833 l 779 87 l 258 87 z "},"´":{"ha":380,"x_min":32,"x_max":348,"o":"m 150 789 l 32 555 l 348 833 l 150 789 z "},"µ":{"ha":358,"x_min":32,"x_max":330,"o":"m 284 204 l 284 204 q 330 385 284 326 l 237 453 q 209 271 209 357 q 217 187 209 229 q 148 61 217 144 q 106 250 106 142 q 130 400 106 323 l 34 453 q 32 351 32 400 q 106 12 32 234 q 227 -262 176 -197 l 187 -115 q 165 20 155 2 q 231 132 169 25 q 311 -16 262 41 q 284 204 284 109 z "},"¶":{"ha":1042,"x_min":130,"x_max":911,"o":"m 130 0 l 911 0 l 911 921 l 130 921 l 130 0 m 258 87 l 258 833 l 779 833 l 779 87 l 258 87 z "},"¸":{"ha":1042,"x_min":130,"x_max":911,"o":"m 130 0 l 911 0 l 911 921 l 130 921 l 130 0 m 258 87 l 258 833 l 779 833 l 779 87 l 258 87 z "},"¹":{"ha":1042,"x_min":130,"x_max":911,"o":"m 130 0 l 911 0 l 911 921 l 130 921 l 130 0 m 258 87 l 258 833 l 779 833 l 779 87 l 258 87 z "},"º":{"ha":1042,"x_min":130,"x_max":911,"o":"m 130 0 l 911 0 l 911 921 l 130 921 l 130 0 m 258 87 l 258 833 l 779 833 l 779 87 l 258 87 z "},"»":{"ha":869,"x_min":113,"x_max":829,"o":"m 829 160 q 609 216 712 160 q 446 371 506 272 q 785 543 568 532 l 819 476 q 779 479 803 478 q 469 354 622 488 q 575 264 512 302 q 728 221 656 215 q 800 237 777 225 l 829 160 m 829 160 q 609 216 712 160 q 446 371 506 272 q 785 543 568 532 l 819 476 q 779 479 803 478 q 469 354 622 488 q 575 264 512 302 q 728 221 656 215 q 800 237 777 225 l 829 160 m 496 160 q 276 216 378 160 q 113 371 174 272 q 452 543 235 532 l 486 476 q 446 479 470 478 q 136 354 289 488 q 242 264 178 302 q 394 221 323 215 q 467 237 445 225 l 496 160 z "},"¼":{"ha":1042,"x_min":130,"x_max":911,"o":"m 130 0 l 911 0 l 911 921 l 130 921 l 130 0 m 258 87 l 258 833 l 779 833 l 779 87 l 258 87 z "},"½":{"ha":1042,"x_min":130,"x_max":911,"o":"m 130 0 l 911 0 l 911 921 l 130 921 l 130 0 m 258 87 l 258 833 l 779 833 l 779 87 l 258 87 z "},"¾":{"ha":1042,"x_min":130,"x_max":911,"o":"m 130 0 l 911 0 l 911 921 l 130 921 l 130 0 m 258 87 l 258 833 l 779 833 l 779 87 l 258 87 z "},"¿":{"ha":722,"x_min":35,"x_max":684,"o":"m 313 590 l 360 700 l 406 555 l 313 590 m 173 139 q 348 325 332 271 q 348 386 356 354 q 262 497 328 463 l 277 505 q 423 334 427 424 q 302 144 420 254 q 140 -46 153 7 q 136 -83 133 -71 q 225 -174 145 -132 q 388 -197 275 -200 q 575 -90 575 -193 l 575 -74 q 494 -1 575 -31 q 354 29 429 22 l 319 39 q 362 40 350 40 q 494 25 431 39 q 612 -9 589 4 q 682 -94 684 -51 q 561 -195 677 -169 q 423 -211 500 -208 q 217 -184 299 -216 q 38 -39 35 -115 q 173 139 41 30 z "},"À":{"ha":1106,"x_min":42,"x_max":1133,"o":"m 507 1177 l 625 943 l 309 1221 l 507 1177 m 1121 -196 q 865 249 931 122 q 726 296 811 252 l 588 367 l 523 168 q 435 -28 490 67 q 223 -175 351 -175 q 108 -148 161 -175 q 44 -58 42 -115 q 201 277 52 146 q 454 406 319 380 q 511 412 475 410 q 598 843 598 699 q 588 921 598 882 l 722 857 l 923 318 q 1019 407 962 330 q 938 272 996 315 q 1133 -195 1069 -69 l 1121 -196 m 675 676 l 675 676 l 600 410 q 734 374 674 400 l 821 335 q 675 676 731 518 m 481 385 l 481 385 q 463 382 471 385 q 336 298 412 358 q 215 197 242 225 q 71 -43 71 50 q 173 -131 71 -131 q 376 20 320 -131 l 376 17 q 492 383 401 90 q 481 385 488 385 z "},"Á":{"ha":1106,"x_min":42,"x_max":1133,"o":"m 726 1192 l 923 1236 l 606 958 l 726 1192 m 1121 -196 q 865 249 931 122 q 726 296 811 252 l 588 367 l 523 168 q 435 -28 490 67 q 223 -175 351 -175 q 108 -148 161 -175 q 44 -58 42 -115 q 201 277 52 146 q 454 406 319 380 q 511 412 475 410 q 598 843 598 699 q 588 921 598 882 l 722 857 l 923 318 q 1019 407 962 330 q 938 272 996 315 q 1133 -195 1069 -69 l 1121 -196 m 675 676 l 675 676 l 600 410 q 734 374 674 400 l 821 335 q 675 676 731 518 m 481 385 l 481 385 q 463 382 471 385 q 336 298 412 358 q 215 197 242 225 q 71 -43 71 50 q 173 -131 71 -131 q 376 20 320 -131 l 376 17 q 492 383 401 90 q 481 385 488 385 z "},"Â":{"ha":1106,"x_min":42,"x_max":1133,"o":"m 842 1053 l 748 1022 l 748 1051 q 634 1234 748 1157 q 563 1093 563 1152 q 583 1047 563 1063 l 469 1018 q 467 1044 467 1031 q 659 1255 467 1188 q 652 1253 656 1255 l 659 1260 q 842 1053 821 1189 m 1121 -196 q 865 249 931 122 q 726 296 811 252 l 588 367 l 523 168 q 435 -28 490 67 q 223 -175 351 -175 q 108 -148 161 -175 q 44 -58 42 -115 q 201 277 52 146 q 454 406 319 380 q 511 412 475 410 q 598 843 598 699 q 588 921 598 882 l 722 857 l 923 318 q 1019 407 962 330 q 938 272 996 315 q 1133 -195 1069 -69 l 1121 -196 m 675 676 l 675 676 l 600 410 q 734 374 674 400 l 821 335 q 675 676 731 518 m 481 385 l 481 385 q 463 382 471 385 q 336 298 412 358 q 215 197 242 225 q 71 -43 71 50 q 173 -131 71 -131 q 376 20 320 -131 l 376 17 q 492 383 401 90 q 481 385 488 385 z "},"Ã":{"ha":1106,"x_min":42,"x_max":1133,"o":"m 938 1116 l 940 1111 q 734 1015 837 1015 q 596 1044 686 1015 q 459 1074 506 1074 q 294 999 374 1074 l 300 1006 q 511 1122 406 1122 q 650 1090 554 1122 q 791 1057 747 1057 q 938 1116 867 1057 m 1121 -196 q 865 249 931 122 q 726 296 811 252 l 588 367 l 523 168 q 435 -28 490 67 q 223 -175 351 -175 q 108 -148 161 -175 q 44 -58 42 -115 q 201 277 52 146 q 454 406 319 380 q 511 412 475 410 q 598 843 598 699 q 588 921 598 882 l 722 857 l 923 318 q 1019 407 962 330 q 938 272 996 315 q 1133 -195 1069 -69 l 1121 -196 m 675 676 l 675 676 l 600 410 q 734 374 674 400 l 821 335 q 675 676 731 518 m 481 385 l 481 385 q 463 382 471 385 q 336 298 412 358 q 215 197 242 225 q 71 -43 71 50 q 173 -131 71 -131 q 376 20 320 -131 l 376 17 q 492 383 401 90 q 481 385 488 385 z "},"Ä":{"ha":1106,"x_min":42,"x_max":1133,"o":"m 787 1022 l 732 1182 l 836 1146 l 787 1022 m 419 1025 l 362 1185 l 467 1149 l 419 1025 m 1121 -196 q 865 249 931 122 q 726 296 811 252 l 588 367 l 523 168 q 435 -28 490 67 q 223 -175 351 -175 q 108 -148 161 -175 q 44 -58 42 -115 q 201 277 52 146 q 454 406 319 380 q 511 412 475 410 q 598 843 598 699 q 588 921 598 882 l 722 857 l 923 318 q 1019 407 962 330 q 938 272 996 315 q 1133 -195 1069 -69 l 1121 -196 m 675 676 l 675 676 l 600 410 q 734 374 674 400 l 821 335 q 675 676 731 518 m 481 385 l 481 385 q 463 382 471 385 q 336 298 412 358 q 215 197 242 225 q 71 -43 71 50 q 173 -131 71 -131 q 376 20 320 -131 l 376 17 q 492 383 401 90 q 481 385 488 385 z "},"Å":{"ha":1106,"x_min":42,"x_max":1133,"o":"m 956 1150 q 787 960 886 1045 q 667 867 744 922 q 446 1182 458 986 l 596 1219 q 956 1150 825 1187 m 781 1084 l 781 1120 q 692 1136 748 1126 q 602 1147 688 1137 q 590 1097 590 1117 q 684 942 590 1011 q 781 1084 781 1036 m 1121 -196 q 865 249 931 122 q 726 296 811 252 l 588 367 l 523 168 q 435 -28 490 67 q 223 -175 351 -175 q 108 -148 161 -175 q 44 -58 42 -115 q 201 277 52 146 q 454 406 319 380 q 511 412 475 410 q 598 843 598 699 q 588 921 598 882 l 722 857 l 923 318 q 1019 407 962 330 q 938 272 996 315 q 1133 -195 1069 -69 l 1121 -196 m 675 676 l 675 676 l 600 410 q 734 374 674 400 l 821 335 q 675 676 731 518 m 481 385 l 481 385 q 463 382 471 385 q 336 298 412 358 q 215 197 242 225 q 71 -43 71 50 q 173 -131 71 -131 q 376 20 320 -131 l 376 17 q 492 383 401 90 q 481 385 488 385 z "},"Æ":{"ha":1654,"x_min":-9,"x_max":2131,"o":"m 2131 -187 l 2131 -187 q 1748 -100 1919 -100 q 1394 -149 1625 -100 q 1092 -195 1190 -192 l 1048 -196 q 844 273 900 115 q 694 315 770 278 l 588 367 q 386 -28 462 80 q 157 -175 282 -175 q 51 -153 98 -175 q -9 -73 -9 -125 q -8 -58 -9 -67 q 189 277 24 146 q 461 385 333 390 q 330 298 398 349 q 197 197 216 215 q 18 -56 20 35 q 113 -131 16 -131 q 332 20 260 -131 l 332 17 q 517 412 359 66 q 659 843 639 682 q 659 921 665 894 l 795 873 q 1034 815 859 852 q 1273 777 1219 777 q 1529 856 1392 777 q 1253 734 1448 734 q 942 778 1167 734 l 798 806 l 903 380 q 1082 441 1019 441 q 1367 311 1231 441 q 1246 375 1303 349 q 1145 390 1213 390 q 917 302 1027 390 q 1065 -131 1002 -24 q 1304 -102 1168 -123 q 1702 -58 1575 -58 q 2131 -187 1986 -58 m 714 676 l 714 676 l 606 410 q 738 380 640 406 l 807 363 q 714 676 754 513 z "},"Ç":{"ha":854,"x_min":32,"x_max":1436,"o":"m 565 -192 l 398 -439 l 471 -131 l 565 -192 m 1119 -195 l 1119 -195 l 1058 -204 q 936 -208 996 -208 q 518 -148 712 -208 q 184 39 312 -84 q 32 379 32 184 q 273 785 32 627 q 441 867 345 832 q 640 907 553 907 q 775 868 721 907 q 811 796 811 835 q 686 627 811 781 q 561 450 561 473 q 640 339 561 395 q 496 484 496 382 q 608 664 496 517 q 720 823 720 810 q 629 893 720 893 q 535 879 587 893 q 136 422 136 769 q 146 297 136 364 q 677 -160 256 -36 q 865 -186 736 -178 q 1000 -189 935 -191 q 1056 -186 1030 -188 l 1094 -183 q 1436 -117 1175 -177 l 1436 -119 q 1119 -195 1183 -184 z "},"È":{"ha":923,"x_min":44,"x_max":1511,"o":"m 507 1177 l 625 943 l 309 1221 l 507 1177 m 515 422 l 515 422 l 519 422 l 477 411 l 475 411 l 362 400 l 354 157 l 362 157 q 517 127 454 157 q 600 7 600 88 q 563 -64 600 -4 l 563 -5 q 506 70 563 41 q 408 96 463 92 l 354 100 l 346 -86 l 388 -86 q 694 -53 479 -86 q 1104 -9 975 -9 q 1511 -139 1390 -9 l 1463 -113 q 1261 -60 1400 -78 q 1141 -52 1198 -52 q 772 -100 1022 -52 q 402 -143 531 -147 q 346 -138 389 -142 l 344 -191 l 332 -191 l 328 -136 q 125 -45 206 -115 q 96 11 96 -19 q 175 117 96 77 q 313 154 237 149 l 296 393 q 44 550 44 403 q 50 604 44 574 l 64 604 q 120 479 59 524 q 256 440 174 440 l 296 444 l 286 618 q 260 615 275 615 q 85 694 142 615 q 62 761 62 727 q 85 818 62 791 q 290 917 168 911 q 566 874 387 921 q 842 825 752 825 q 929 833 881 825 q 1080 885 1034 851 l 1117 904 q 813 783 1010 783 q 509 827 720 783 q 378 851 482 832 l 372 710 q 410 779 410 742 l 410 840 l 417 828 q 439 766 439 788 q 372 644 439 684 l 362 454 q 579 490 555 490 q 842 359 733 490 q 734 424 793 392 q 636 439 698 439 q 515 422 579 439 m 271 860 q 113 807 180 859 q 94 768 94 791 q 100 737 94 755 q 225 671 123 671 q 281 675 252 671 l 271 860 m 313 103 q 205 87 252 103 q 138 17 138 64 q 163 -35 138 -20 q 323 -83 227 -73 l 313 103 z "},"É":{"ha":923,"x_min":44,"x_max":1511,"o":"m 682 1166 l 879 1211 l 563 933 l 682 1166 m 515 422 l 515 422 l 519 422 l 477 411 l 475 411 l 362 400 l 354 157 l 362 157 q 517 127 454 157 q 600 7 600 88 q 563 -64 600 -4 l 563 -5 q 506 70 563 41 q 408 96 463 92 l 354 100 l 346 -86 l 388 -86 q 694 -53 479 -86 q 1104 -9 975 -9 q 1511 -139 1390 -9 l 1463 -113 q 1261 -60 1400 -78 q 1141 -52 1198 -52 q 772 -100 1022 -52 q 402 -143 531 -147 q 346 -138 389 -142 l 344 -191 l 332 -191 l 328 -136 q 125 -45 206 -115 q 96 11 96 -19 q 175 117 96 77 q 313 154 237 149 l 296 393 q 44 550 44 403 q 50 604 44 574 l 64 604 q 120 479 59 524 q 256 440 174 440 l 296 444 l 286 618 q 260 615 275 615 q 85 694 142 615 q 62 761 62 727 q 85 818 62 791 q 290 917 168 911 q 566 874 387 921 q 842 825 752 825 q 929 833 881 825 q 1080 885 1034 851 l 1117 904 q 813 783 1010 783 q 509 827 720 783 q 378 851 482 832 l 372 710 q 410 779 410 742 l 410 840 l 417 828 q 439 766 439 788 q 372 644 439 684 l 362 454 q 579 490 555 490 q 842 359 733 490 q 734 424 793 392 q 636 439 698 439 q 515 422 579 439 m 271 860 q 113 807 180 859 q 94 768 94 791 q 100 737 94 755 q 225 671 123 671 q 281 675 252 671 l 271 860 m 313 103 q 205 87 252 103 q 138 17 138 64 q 163 -35 138 -20 q 323 -83 227 -73 l 313 103 z "},"Ê":{"ha":923,"x_min":44,"x_max":1511,"o":"m 823 1040 l 730 1010 l 730 1039 q 614 1221 730 1145 q 545 1080 545 1139 q 565 1035 545 1050 l 450 1006 q 449 1032 449 1019 q 640 1243 449 1175 q 634 1240 637 1242 l 640 1247 q 823 1040 802 1177 m 515 422 l 515 422 l 519 422 l 477 411 l 475 411 l 362 400 l 354 157 l 362 157 q 517 127 454 157 q 600 7 600 88 q 563 -64 600 -4 l 563 -5 q 506 70 563 41 q 408 96 463 92 l 354 100 l 346 -86 l 388 -86 q 694 -53 479 -86 q 1104 -9 975 -9 q 1511 -139 1390 -9 l 1463 -113 q 1261 -60 1400 -78 q 1141 -52 1198 -52 q 772 -100 1022 -52 q 402 -143 531 -147 q 346 -138 389 -142 l 344 -191 l 332 -191 l 328 -136 q 125 -45 206 -115 q 96 11 96 -19 q 175 117 96 77 q 313 154 237 149 l 296 393 q 44 550 44 403 q 50 604 44 574 l 64 604 q 120 479 59 524 q 256 440 174 440 l 296 444 l 286 618 q 260 615 275 615 q 85 694 142 615 q 62 761 62 727 q 85 818 62 791 q 290 917 168 911 q 566 874 387 921 q 842 825 752 825 q 929 833 881 825 q 1080 885 1034 851 l 1117 904 q 813 783 1010 783 q 509 827 720 783 q 378 851 482 832 l 372 710 q 410 779 410 742 l 410 840 l 417 828 q 439 766 439 788 q 372 644 439 684 l 362 454 q 579 490 555 490 q 842 359 733 490 q 734 424 793 392 q 636 439 698 439 q 515 422 579 439 m 271 860 q 113 807 180 859 q 94 768 94 791 q 100 737 94 755 q 225 671 123 671 q 281 675 252 671 l 271 860 m 313 103 q 205 87 252 103 q 138 17 138 64 q 163 -35 138 -20 q 323 -83 227 -73 l 313 103 z "},"Ë":{"ha":923,"x_min":44,"x_max":1511,"o":"m 698 1022 l 642 1182 l 746 1146 l 698 1022 m 433 1022 l 378 1182 l 481 1146 l 433 1022 m 515 422 l 515 422 l 519 422 l 477 411 l 475 411 l 362 400 l 354 157 l 362 157 q 517 127 454 157 q 600 7 600 88 q 563 -64 600 -4 l 563 -5 q 506 70 563 41 q 408 96 463 92 l 354 100 l 346 -86 l 388 -86 q 694 -53 479 -86 q 1104 -9 975 -9 q 1511 -139 1390 -9 l 1463 -113 q 1261 -60 1400 -78 q 1141 -52 1198 -52 q 772 -100 1022 -52 q 402 -143 531 -147 q 346 -138 389 -142 l 344 -191 l 332 -191 l 328 -136 q 125 -45 206 -115 q 96 11 96 -19 q 175 117 96 77 q 313 154 237 149 l 296 393 q 44 550 44 403 q 50 604 44 574 l 64 604 q 120 479 59 524 q 256 440 174 440 l 296 444 l 286 618 q 260 615 275 615 q 85 694 142 615 q 62 761 62 727 q 85 818 62 791 q 290 917 168 911 q 566 874 387 921 q 842 825 752 825 q 929 833 881 825 q 1080 885 1034 851 l 1117 904 q 813 783 1010 783 q 509 827 720 783 q 378 851 482 832 l 372 710 q 410 779 410 742 l 410 840 l 417 828 q 439 766 439 788 q 372 644 439 684 l 362 454 q 579 490 555 490 q 842 359 733 490 q 734 424 793 392 q 636 439 698 439 q 515 422 579 439 m 271 860 q 113 807 180 859 q 94 768 94 791 q 100 737 94 755 q 225 671 123 671 q 281 675 252 671 l 271 860 m 313 103 q 205 87 252 103 q 138 17 138 64 q 163 -35 138 -20 q 323 -83 227 -73 l 313 103 z "},"Ì":{"ha":256,"x_min":-121,"x_max":207,"o":"m 77 1215 l 197 982 l -121 1260 l 77 1215 m 153 -122 l 148 -122 l 100 871 q 44 911 75 879 l 207 907 l 153 -122 z "},"Í":{"ha":256,"x_min":44,"x_max":507,"o":"m 309 1198 l 507 1243 l 189 965 l 309 1198 m 153 -122 l 148 -122 l 100 871 q 44 911 75 879 l 207 907 l 153 -122 z "},"Î":{"ha":256,"x_min":-12,"x_max":362,"o":"m 362 1059 l 269 1028 l 269 1057 q 155 1239 269 1162 q 83 1099 83 1157 q 104 1053 83 1068 l -10 1023 q -12 1050 -12 1037 q 179 1261 -12 1194 q 173 1258 176 1261 l 179 1265 q 362 1059 342 1194 m 153 -122 l 148 -122 l 100 871 q 44 911 75 879 l 207 907 l 153 -122 z "},"Ï":{"ha":256,"x_min":24,"x_max":300,"o":"m 252 1022 l 197 1182 l 300 1146 l 252 1022 m 79 1022 l 24 1182 l 127 1146 l 79 1022 m 153 -122 l 148 -122 l 100 871 q 44 911 75 879 l 207 907 l 153 -122 z "},"Ð":{"ha":1048,"x_min":42,"x_max":1029,"o":"m 382 800 q 362 888 382 817 q 269 889 310 889 q 159 857 164 889 q 231 819 156 839 l 382 781 l 382 800 m 406 136 q 269 96 340 119 q 165 46 160 61 q 269 12 176 12 q 413 18 344 12 l 406 136 m 394 541 l 388 675 q 269 654 336 661 l 269 657 q 356 701 356 677 q 201 775 356 709 q 44 847 45 842 q 43 853 43 850 q 138 896 43 880 q 267 908 209 908 q 815 823 635 908 q 1027 488 1029 722 q 861 97 1025 313 q 419 -1 742 21 l 419 -40 l 415 -40 l 413 -3 q 267 -7 342 -7 q 138 5 208 -7 q 43 49 43 22 q 44 54 43 52 q 201 126 45 60 q 356 200 356 193 q 269 244 356 224 l 269 248 q 406 224 354 239 l 394 478 q 233 507 288 507 q 42 432 134 507 l 50 439 q 294 555 190 555 q 394 541 332 555 m 789 549 l 791 545 q 553 449 673 449 q 450 463 515 449 l 435 212 q 457 186 457 199 q 429 149 457 167 l 421 20 q 807 178 699 46 q 895 490 889 278 q 800 749 873 668 q 475 878 709 848 l 454 524 l 459 524 q 621 490 566 490 q 789 549 708 490 z "},"Ñ":{"ha":802,"x_min":44,"x_max":750,"o":"m 726 1118 l 728 1114 q 521 1018 625 1018 q 384 1047 474 1018 q 246 1076 293 1076 q 81 1002 161 1076 l 87 1008 q 298 1125 193 1125 q 438 1093 342 1125 q 579 1060 533 1060 q 726 1118 654 1060 m 219 909 l 219 909 l 221 913 l 227 908 q 364 804 264 882 q 642 347 553 653 l 610 852 q 605 863 605 855 q 608 882 605 869 q 610 903 610 896 l 750 842 l 677 -146 l 673 -146 l 659 60 q 500 505 642 288 q 227 796 383 686 l 171 -122 l 167 -122 l 102 869 q 44 909 75 879 l 209 907 q 219 909 212 908 z "},"Ò":{"ha":785,"x_min":46,"x_max":736,"o":"m 311 1206 l 429 972 l 113 1250 l 311 1206 m 509 241 q 344 5 454 157 q 46 791 67 304 l 246 888 q 736 714 554 810 q 509 241 631 430 m 590 707 l 390 761 q 185 800 292 787 q 159 635 159 673 q 368 114 159 357 q 590 593 590 433 l 590 707 z "},"Ó":{"ha":785,"x_min":46,"x_max":771,"o":"m 573 1177 l 771 1221 l 454 943 l 573 1177 m 509 241 q 344 5 454 157 q 46 791 67 304 l 246 888 q 736 714 554 810 q 509 241 631 430 m 590 707 l 390 761 q 185 800 292 787 q 159 635 159 673 q 368 114 159 357 q 590 593 590 433 l 590 707 z "},"Ô":{"ha":785,"x_min":46,"x_max":736,"o":"m 604 1036 l 511 1006 l 511 1035 q 396 1217 511 1140 q 325 1076 325 1135 q 346 1031 325 1046 l 231 1002 q 230 1028 230 1015 q 421 1239 230 1171 q 415 1236 418 1238 l 421 1243 q 604 1036 583 1173 m 509 241 q 344 5 454 157 q 46 791 67 304 l 246 888 q 736 714 554 810 q 509 241 631 430 m 590 707 l 390 761 q 185 800 292 787 q 159 635 159 673 q 368 114 159 357 q 590 593 590 433 l 590 707 z "},"Õ":{"ha":785,"x_min":46,"x_max":736,"o":"m 726 1118 l 728 1114 q 521 1018 625 1018 q 384 1047 474 1018 q 246 1076 293 1076 q 81 1002 161 1076 l 87 1008 q 298 1125 193 1125 q 438 1093 342 1125 q 579 1060 533 1060 q 726 1118 654 1060 m 509 241 q 344 5 454 157 q 46 791 67 304 l 246 888 q 736 714 554 810 q 509 241 631 430 m 590 707 l 390 761 q 185 800 292 787 q 159 635 159 673 q 368 114 159 357 q 590 593 590 433 l 590 707 z "},"Ö":{"ha":785,"x_min":46,"x_max":736,"o":"m 553 1022 l 496 1182 l 600 1146 l 553 1022 m 254 1022 l 199 1182 l 302 1146 l 254 1022 m 509 241 q 344 5 454 157 q 46 791 67 304 l 246 888 q 736 714 554 810 q 509 241 631 430 m 590 707 l 390 761 q 185 800 292 787 q 159 635 159 673 q 368 114 159 357 q 590 593 590 433 l 590 707 z "},"×":{"ha":618,"x_min":38,"x_max":581,"o":"m 100 65 l 275 253 l 108 389 q 85 386 96 386 q 38 393 60 386 l 159 453 l 309 290 l 461 453 l 581 393 q 533 386 559 386 q 511 389 523 386 l 344 253 l 519 65 l 513 62 l 311 225 l 106 62 l 100 65 z "},"Ø":{"ha":785,"x_min":-30,"x_max":842,"o":"m 833 950 l 833 950 l 842 950 q 600 590 812 719 q 211 351 505 532 q -30 37 0 222 l -30 50 q 173 410 -30 257 q 441 562 290 475 q 833 950 791 764 m 509 241 l 509 241 q 344 5 458 164 q 46 791 67 304 l 246 888 q 736 714 554 810 q 509 241 632 429 m 590 707 l 390 761 q 185 800 292 787 q 159 635 159 673 q 368 114 159 357 q 590 593 590 433 l 590 707 z "},"Ù":{"ha":1023,"x_min":14,"x_max":1015,"o":"m 507 1177 l 625 943 l 309 1221 l 507 1177 m 1008 854 l 1008 854 q 970 468 978 751 q 897 131 964 229 q 515 -16 796 -16 q 127 144 221 -16 q 67 510 70 243 q 14 908 64 791 l 14 913 q 24 917 14 917 q 104 889 50 917 l 179 851 l 177 850 l 177 851 l 175 851 q 171 843 171 848 l 173 751 q 160 520 175 666 q 144 289 144 360 q 262 87 144 140 q 513 53 339 53 q 783 94 705 53 q 895 323 895 153 q 886 528 895 392 q 877 733 877 665 q 883 908 877 791 q 895 917 884 917 q 946 896 908 917 q 1015 861 1001 865 q 1008 854 1009 857 z "},"Ú":{"ha":1023,"x_min":14,"x_max":1015,"o":"m 573 1177 l 771 1221 l 454 943 l 573 1177 m 1008 854 l 1008 854 q 970 468 978 751 q 897 131 964 229 q 515 -16 796 -16 q 127 144 221 -16 q 67 510 70 243 q 14 908 64 791 l 14 913 q 24 917 14 917 q 104 889 50 917 l 179 851 l 177 850 l 177 851 l 175 851 q 171 843 171 848 l 173 751 q 160 520 175 666 q 144 289 144 360 q 262 87 144 140 q 513 53 339 53 q 783 94 705 53 q 895 323 895 153 q 886 528 895 392 q 877 733 877 665 q 883 908 877 791 q 895 917 884 917 q 946 896 908 917 q 1015 861 1001 865 q 1008 854 1009 857 z "},"Û":{"ha":1023,"x_min":14,"x_max":1015,"o":"m 671 1034 l 577 1003 l 577 1032 q 463 1214 577 1137 q 392 1074 392 1132 q 413 1028 392 1043 l 298 999 q 296 1025 296 1012 q 488 1236 296 1168 q 481 1234 485 1236 l 488 1240 q 671 1034 650 1169 m 1008 854 l 1008 854 q 970 468 978 751 q 897 131 964 229 q 515 -16 796 -16 q 127 144 221 -16 q 67 510 70 243 q 14 908 64 791 l 14 913 q 24 917 14 917 q 104 889 50 917 l 179 851 l 177 850 l 177 851 l 175 851 q 171 843 171 848 l 173 751 q 160 520 175 666 q 144 289 144 360 q 262 87 144 140 q 513 53 339 53 q 783 94 705 53 q 895 323 895 153 q 886 528 895 392 q 877 733 877 665 q 883 908 877 791 q 895 917 884 917 q 946 896 908 917 q 1015 861 1001 865 q 1008 854 1009 857 z "},"Ü":{"ha":1023,"x_min":14,"x_max":1015,"o":"m 356 1022 l 300 1182 l 404 1146 l 356 1022 m 606 1022 l 551 1182 l 654 1146 l 606 1022 m 1008 854 l 1008 854 q 970 468 978 751 q 897 131 964 229 q 515 -16 796 -16 q 127 144 221 -16 q 67 510 70 243 q 14 908 64 791 l 14 913 q 24 917 14 917 q 104 889 50 917 l 179 851 l 177 850 l 177 851 l 175 851 q 171 843 171 848 l 173 751 q 160 520 175 666 q 144 289 144 360 q 262 87 144 140 q 513 53 339 53 q 783 94 705 53 q 895 323 895 153 q 886 528 895 392 q 877 733 877 665 q 883 908 877 791 q 895 917 884 917 q 946 896 908 917 q 1015 861 1001 865 q 1008 854 1009 857 z "},"Ý":{"ha":590,"x_min":40,"x_max":789,"o":"m 573 1177 l 771 1221 l 454 943 l 573 1177 m 427 359 l 392 -453 l 388 -453 l 338 359 q 40 911 173 610 l 205 832 q 382 374 242 707 l 573 676 q 734 911 643 787 l 789 810 q 427 359 719 766 z "},"Þ":{"ha":479,"x_min":-6,"x_max":463,"o":"m 342 294 q 463 590 463 447 q 443 641 463 607 q 421 690 423 675 l 330 745 q 233 707 311 730 q 146 673 159 686 l 150 928 l -6 928 q 54 886 29 896 l 87 9 l 96 9 l 127 435 q 215 358 127 387 q 342 294 320 322 m 336 689 q 360 631 338 671 q 382 571 382 591 q 356 467 382 528 l 313 364 q 211 431 305 376 q 132 490 131 477 l 142 624 q 235 661 169 646 q 336 689 315 680 z "},"ß":{"ha":616,"x_min":-106,"x_max":680,"o":"m 477 917 l 477 917 q 680 812 680 914 q 626 756 680 774 q 541 743 589 743 q 366 758 401 758 q 244 713 294 758 q 406 798 288 798 q 559 779 462 798 q 596 775 581 775 q 667 812 667 775 q 477 897 667 891 q 224 847 315 903 q 121 627 121 784 l 121 561 q 269 585 222 584 q 541 497 494 587 l 364 412 q 294 372 311 387 q 604 121 450 222 q 336 -53 373 37 l 250 26 q 294 193 279 121 l 307 193 q 306 173 306 183 q 350 62 306 100 q 498 136 460 94 q 183 376 334 239 q 336 440 252 406 q 429 522 431 494 q 319 543 371 543 q 181 521 254 543 l 177 526 l 185 528 l 189 522 l 117 510 l 94 -229 l 75 -237 l 36 504 q -106 579 -100 507 l -98 579 q -12 543 -86 539 l 34 546 l 28 659 q 156 857 21 789 q 477 917 277 917 z "},"à":{"ha":352,"x_min":-54,"x_max":323,"o":"m 108 733 l 205 542 l -54 770 l 108 733 m 279 214 l 279 214 q 307 -1 279 119 q 225 143 254 54 q 117 5 198 102 q 32 302 32 114 q 36 400 32 353 l 132 454 l 219 401 q 233 464 225 433 l 323 396 q 279 214 279 339 m 205 285 l 205 285 q 215 363 205 322 q 121 400 157 392 q 111 281 111 343 q 146 75 111 168 q 215 200 212 157 q 205 285 205 240 z "},"á":{"ha":352,"x_min":32,"x_max":429,"o":"m 267 732 l 429 768 l 171 541 l 267 732 m 279 214 l 279 214 q 307 -1 279 119 q 225 143 254 54 q 117 5 198 102 q 32 302 32 114 q 36 400 32 353 l 132 454 l 219 401 q 233 464 225 433 l 323 396 q 279 214 279 339 m 205 285 l 205 285 q 215 363 205 322 q 121 400 157 392 q 111 281 111 343 q 146 75 111 168 q 215 200 212 157 q 205 285 205 240 z "},"â":{"ha":352,"x_min":32,"x_max":336,"o":"m 336 606 l 336 606 l 262 581 l 262 604 q 175 754 262 690 q 119 639 119 686 q 136 602 119 615 l 46 578 q 45 597 45 587 q 193 772 45 717 l 189 770 l 193 775 q 336 606 318 718 m 279 214 l 279 214 q 307 -1 279 119 q 225 143 254 54 q 117 5 198 102 q 32 302 32 114 q 36 400 32 353 l 132 454 l 219 401 q 233 464 225 433 l 323 396 q 279 214 279 339 m 205 285 l 205 285 q 215 363 205 322 q 121 400 157 392 q 111 281 111 343 q 146 75 111 168 q 215 200 212 157 q 205 285 205 240 z "},"ã":{"ha":352,"x_min":-8,"x_max":384,"o":"m 382 653 l 384 648 q 258 558 320 558 q 175 586 233 558 q 92 614 117 614 q -8 543 39 614 l -4 549 q 123 659 78 659 q 211 628 144 659 q 294 597 277 597 q 382 653 342 597 m 279 214 l 279 214 q 307 -1 279 119 q 225 143 254 54 q 117 5 198 102 q 32 302 32 114 q 36 400 32 353 l 132 454 l 219 401 q 233 464 225 433 l 323 396 q 279 214 279 339 m 205 285 l 205 285 q 215 363 205 322 q 121 400 157 392 q 111 281 111 343 q 146 75 111 168 q 215 200 212 157 q 205 285 205 240 z "},"ä":{"ha":352,"x_min":32,"x_max":323,"o":"m 90 492 l 34 652 l 138 615 l 90 492 m 262 492 l 207 652 l 311 615 l 262 492 m 279 214 l 279 214 q 307 -1 279 119 q 225 143 254 54 q 117 5 198 102 q 32 302 32 114 q 36 400 32 353 l 132 454 l 219 401 q 233 464 225 433 l 323 396 q 279 214 279 339 m 205 285 l 205 285 q 215 363 205 322 q 121 400 157 392 q 111 281 111 343 q 146 75 111 168 q 215 200 212 157 q 205 285 205 240 z "},"å":{"ha":352,"x_min":18,"x_max":338,"o":"m 229 627 l 229 652 q 173 665 185 661 q 117 673 153 668 q 108 635 108 647 q 167 518 108 572 q 229 627 229 591 m 338 675 q 233 532 286 581 q 157 461 231 529 q 18 699 25 553 l 113 728 q 338 675 267 700 m 279 214 l 279 214 q 307 -1 279 119 q 225 143 254 54 q 117 5 198 102 q 32 302 32 114 q 36 400 32 353 l 132 454 l 219 401 q 233 464 225 433 l 323 396 q 279 214 279 339 m 205 285 l 205 285 q 215 363 205 322 q 121 400 157 392 q 111 281 111 343 q 146 75 111 168 q 215 200 212 157 q 205 285 205 240 z "},"æ":{"ha":461,"x_min":32,"x_max":429,"o":"m 311 81 l 311 81 q 417 235 366 94 l 417 208 q 307 -1 417 94 q 225 143 254 54 q 117 5 198 102 q 32 302 32 114 q 36 400 32 353 l 132 454 l 219 401 q 275 464 227 441 q 400 379 379 406 q 429 326 429 357 q 281 176 429 258 q 311 81 288 126 m 281 203 l 281 203 q 376 326 376 268 q 356 372 376 351 l 323 396 q 277 253 277 338 q 281 203 277 229 m 205 285 l 205 285 q 215 363 205 322 q 121 400 157 392 q 111 281 111 343 q 146 75 111 168 q 215 200 212 157 q 205 285 205 240 z "},"ç":{"ha":258,"x_min":30,"x_max":233,"o":"m 159 -32 l 30 -205 l 85 11 l 159 -32 m 115 400 l 115 400 q 92 211 92 294 q 111 86 92 136 q 219 237 169 97 l 219 208 q 119 7 219 107 q 32 300 32 117 q 36 383 32 342 l 125 456 q 211 372 196 389 l 233 328 q 115 400 150 380 z "},"è":{"ha":271,"x_min":-54,"x_max":240,"o":"m 108 733 l 205 542 l -54 770 l 108 733 m 92 176 l 92 176 q 115 85 98 122 q 227 235 175 92 l 227 208 q 127 4 227 106 q 32 318 32 122 q 34 380 32 350 l 121 453 q 211 379 196 397 q 240 326 240 357 q 92 176 240 258 m 167 372 l 167 372 q 115 400 137 393 q 92 203 90 289 q 185 326 185 268 q 167 372 185 351 z "},"é":{"ha":271,"x_min":32,"x_max":382,"o":"m 219 732 l 382 768 l 123 541 l 219 732 m 92 176 l 92 176 q 115 85 98 122 q 227 235 175 92 l 227 208 q 127 4 227 106 q 32 318 32 122 q 34 380 32 350 l 121 453 q 211 379 196 397 q 240 326 240 357 q 92 176 240 258 m 167 372 l 167 372 q 115 400 137 393 q 92 203 90 289 q 185 326 185 268 q 167 372 185 351 z "},"ê":{"ha":271,"x_min":12,"x_max":302,"o":"m 302 606 l 302 606 l 229 581 l 229 604 q 142 754 229 690 q 85 639 85 686 q 102 602 85 615 l 12 578 q 12 597 12 587 q 161 772 12 717 l 157 770 l 161 775 q 302 606 286 718 m 92 176 l 92 176 q 115 85 98 122 q 227 235 175 92 l 227 208 q 127 4 227 106 q 32 318 32 122 q 34 380 32 350 l 121 453 q 211 379 196 397 q 240 326 240 357 q 92 176 240 258 m 167 372 l 167 372 q 115 400 137 393 q 92 203 90 289 q 185 326 185 268 q 167 372 185 351 z "},"ë":{"ha":271,"x_min":32,"x_max":311,"o":"m 90 492 l 34 652 l 138 615 l 90 492 m 262 492 l 207 652 l 311 615 l 262 492 m 92 176 l 92 176 q 115 85 98 122 q 227 235 175 92 l 227 208 q 127 4 227 106 q 32 318 32 122 q 34 380 32 350 l 121 453 q 211 379 196 397 q 240 326 240 357 q 92 176 240 258 m 167 372 l 167 372 q 115 400 137 393 q 92 203 90 289 q 185 326 185 268 q 167 372 185 351 z "},"ì":{"ha":179,"x_min":-134,"x_max":146,"o":"m 30 733 l 125 542 l -134 770 l 30 733 m 96 -11 l 87 -11 l 48 411 q -4 443 14 421 l 146 443 l 96 -11 z "},"í":{"ha":179,"x_min":-4,"x_max":340,"o":"m 177 732 l 340 768 l 81 541 l 177 732 m 96 -11 l 87 -11 l 48 411 q -4 443 14 421 l 146 443 l 96 -11 z "},"î":{"ha":179,"x_min":-45,"x_max":246,"o":"m 246 606 l 246 606 l 173 581 l 173 604 q 85 754 173 690 q 30 639 30 686 q 46 602 30 615 l -44 578 q -45 597 -45 587 q 104 772 -45 717 l 100 770 l 104 775 q 246 606 229 718 m 96 -11 l 87 -11 l 48 411 q -4 443 14 421 l 146 443 l 96 -11 z "},"ï":{"ha":179,"x_min":-54,"x_max":223,"o":"m 175 492 l 119 652 l 223 615 l 175 492 m 2 492 l -54 652 l 50 615 l 2 492 m 96 -11 l 87 -11 l 48 411 q -4 443 14 421 l 146 443 l 96 -11 z "},"ð":{"ha":1042,"x_min":130,"x_max":911,"o":"m 130 0 l 911 0 l 911 921 l 130 921 l 130 0 m 258 87 l 258 833 l 779 833 l 779 87 l 258 87 z "},"ñ":{"ha":342,"x_min":-8,"x_max":384,"o":"m 382 653 l 384 648 q 258 558 320 558 q 175 586 233 558 q 92 614 117 614 q -8 543 39 614 l -4 549 q 123 659 78 659 q 211 628 144 659 q 294 597 277 597 q 382 653 342 597 m 267 -16 l 267 -16 l 258 -16 q 213 346 252 260 q 132 257 138 307 l 98 -9 l 90 -9 l 50 412 q -4 444 14 424 l 150 444 l 140 346 q 242 441 202 390 l 307 383 q 267 -16 281 66 z "},"ò":{"ha":342,"x_min":-54,"x_max":313,"o":"m 108 733 l 205 542 l -54 770 l 108 733 m 233 134 l 233 134 q 163 17 204 89 l 155 3 q 32 397 38 143 l 119 452 q 313 364 240 414 q 233 134 292 245 m 231 361 l 231 361 q 115 400 157 392 q 111 332 111 367 q 177 69 111 186 q 233 310 233 192 q 231 361 233 335 z "},"ó":{"ha":342,"x_min":32,"x_max":429,"o":"m 267 732 l 429 768 l 171 541 l 267 732 m 233 134 l 233 134 q 163 17 204 89 l 155 3 q 32 397 38 143 l 119 452 q 313 364 240 414 q 233 134 292 245 m 231 361 l 231 361 q 115 400 157 392 q 111 332 111 367 q 177 69 111 186 q 233 310 233 192 q 231 361 233 335 z "},"ô":{"ha":342,"x_min":32,"x_max":336,"o":"m 336 606 l 336 606 l 262 581 l 262 604 q 175 754 262 690 q 119 639 119 686 q 136 602 119 615 l 46 578 q 45 597 45 587 q 193 772 45 717 l 189 770 l 193 775 q 336 606 318 718 m 233 134 l 233 134 q 163 17 204 89 l 155 3 q 32 397 38 143 l 119 452 q 313 364 240 414 q 233 134 292 245 m 231 361 q 115 400 157 392 q 111 332 111 367 q 177 69 111 186 q 233 310 233 192 q 231 361 233 335 z "},"õ":{"ha":342,"x_min":-8,"x_max":384,"o":"m 382 653 l 384 648 q 258 558 320 558 q 175 586 233 558 q 92 614 117 614 q -8 543 39 614 l -4 549 q 123 659 78 659 q 211 628 144 659 q 294 597 277 597 q 382 653 342 597 m 233 134 l 233 134 q 163 17 204 89 l 155 3 q 32 397 38 143 l 119 452 q 313 364 240 414 q 233 134 292 245 m 231 361 l 231 361 q 115 400 157 392 q 111 332 111 367 q 177 69 111 186 q 233 310 233 192 q 231 361 233 335 z "},"ö":{"ha":342,"x_min":32,"x_max":313,"o":"m 90 492 l 34 652 l 138 615 l 90 492 m 237 492 l 181 652 l 286 615 l 237 492 m 233 134 l 233 134 q 163 17 204 89 l 155 3 q 32 397 38 143 l 119 452 q 313 364 240 414 q 233 134 292 245 m 231 361 l 231 361 q 115 400 157 392 q 111 332 111 367 q 177 69 111 186 q 233 310 233 192 q 231 361 233 335 z "},"÷":{"ha":612,"x_min":32,"x_max":573,"o":"m 32 370 l 117 330 l 573 330 l 486 370 l 32 370 m 360 227 l 317 117 l 264 260 l 360 227 m 360 546 l 317 436 l 264 579 l 360 546 z "},"ø":{"ha":342,"x_min":-10,"x_max":415,"o":"m 233 134 q 163 17 215 104 l 155 3 q 98 92 123 43 q 87 82 95 89 q 36 29 76 72 q -10 65 14 37 q 69 160 14 97 q 32 397 33 261 l 119 452 q 262 406 169 433 q 346 482 290 429 q 415 463 381 464 q 313 364 380 429 q 233 134 291 231 m 231 361 l 231 361 q 115 400 157 392 q 111 332 111 367 q 123 214 111 271 q 153 235 137 235 q 167 207 167 235 q 148 135 167 178 q 177 69 157 106 q 250 301 214 150 q 191 269 215 269 q 169 282 177 269 q 231 361 187 309 z "},"ù":{"ha":358,"x_min":-54,"x_max":330,"o":"m 108 733 l 205 542 l -54 770 l 108 733 m 284 204 q 311 -16 284 109 q 231 132 262 41 q 121 -7 201 89 q 32 351 32 110 q 34 453 32 400 l 130 400 q 106 250 106 323 q 148 61 106 142 q 217 187 216 144 q 209 271 209 229 q 237 453 209 357 l 330 385 q 284 204 284 326 z "},"ú":{"ha":358,"x_min":32,"x_max":429,"o":"m 267 732 l 429 768 l 171 541 l 267 732 m 284 204 q 311 -16 284 109 q 231 132 262 41 q 121 -7 201 89 q 32 351 32 110 q 34 453 32 400 l 130 400 q 106 250 106 323 q 148 61 106 142 q 217 187 216 144 q 209 271 209 229 q 237 453 209 357 l 330 385 q 284 204 284 326 z "},"û":{"ha":358,"x_min":32,"x_max":336,"o":"m 336 606 l 336 606 l 262 581 l 262 604 q 175 754 262 690 q 119 639 119 686 q 136 602 119 615 l 46 578 q 45 597 45 587 q 193 772 45 717 l 189 770 l 193 775 q 336 606 318 718 m 284 204 l 284 204 q 311 -16 284 109 q 231 132 262 41 q 121 -7 201 89 q 32 351 32 110 q 34 453 32 400 l 130 400 q 106 250 106 323 q 148 61 106 142 q 217 187 216 144 q 209 271 209 229 q 237 453 209 357 l 330 385 q 284 204 284 326 z "},"ü":{"ha":358,"x_min":32,"x_max":330,"o":"m 262 492 l 207 652 l 311 615 l 262 492 m 90 492 l 34 652 l 138 615 l 90 492 m 284 204 q 311 -16 284 109 q 231 132 262 41 q 121 -7 201 89 q 32 351 32 110 q 34 453 32 400 l 130 400 q 106 250 106 323 q 148 61 106 142 q 217 187 216 144 q 209 271 209 229 q 237 453 209 357 l 330 385 q 284 204 284 326 z "},"ý":{"ha":317,"x_min":-398,"x_max":429,"o":"m 267 732 l 429 768 l 171 541 l 267 732 m 271 -244 q 142 -411 267 -349 q -75 -461 42 -461 q -275 -436 -182 -461 q -398 -340 -398 -403 q -342 -279 -398 -302 q -254 -261 -298 -261 q -132 -272 -214 -261 q -10 -282 -51 -282 q 96 -262 46 -282 q -46 -318 67 -318 q -163 -306 -85 -318 q -281 -293 -241 -293 q -378 -339 -378 -293 q -106 -432 -378 -432 q 221 -207 221 -432 l 221 125 q 117 -4 189 83 l 117 7 q 44 289 44 134 l 44 414 q -28 446 12 424 l 121 446 q 108 357 108 418 q 146 71 108 175 q 221 176 221 164 l 219 454 l 294 408 l 271 -244 z "},"þ":{"ha":429,"x_min":-6,"x_max":386,"o":"m 300 3 l 300 3 q 386 301 386 111 q 380 399 386 347 l 288 453 q 218 416 272 435 q 146 382 162 396 l 150 636 l -6 636 q 54 595 29 604 l 87 -282 l 96 -282 l 127 143 q 210 75 140 122 q 300 3 282 26 m 294 397 q 304 278 304 338 q 271 72 304 165 q 189 140 254 93 q 132 199 138 178 l 142 332 q 223 372 164 351 l 294 397 z "},"ÿ":{"ha":317,"x_min":-398,"x_max":311,"o":"m 90 492 l 34 652 l 138 615 l 90 492 m 262 492 l 207 652 l 311 615 l 262 492 m 271 -244 q 142 -411 267 -349 q -75 -461 42 -461 q -275 -436 -182 -461 q -398 -340 -398 -403 q -342 -279 -398 -302 q -254 -261 -298 -261 q -132 -272 -214 -261 q -10 -282 -51 -282 q 96 -262 46 -282 q -46 -318 67 -318 q -163 -306 -85 -318 q -281 -293 -241 -293 q -378 -339 -378 -293 q -106 -432 -378 -432 q 221 -207 221 -432 l 221 125 q 117 -4 189 83 l 117 7 q 44 289 44 134 l 44 414 q -28 446 12 424 l 121 446 q 108 357 108 418 q 146 71 108 175 q 221 176 221 164 l 219 454 l 294 408 l 271 -244 z "},"Œ":{"ha":1211,"x_min":46,"x_max":1839,"o":"m 588 559 q 415 631 472 559 q 392 692 392 660 q 425 753 392 721 q 390 761 421 753 q 185 800 278 787 q 159 635 159 673 q 368 114 159 357 q 523 370 469 258 q 374 500 374 399 q 380 550 374 522 l 394 550 q 434 448 389 487 q 539 404 473 413 q 588 559 579 493 m 459 743 q 425 692 425 722 q 429 669 425 682 q 555 610 452 610 q 590 611 577 610 l 590 707 q 459 743 513 728 m 600 781 l 590 781 q 736 714 671 749 q 720 671 727 694 q 740 708 740 694 l 740 762 l 746 751 q 769 696 769 711 q 700 586 769 621 q 680 581 692 583 q 594 403 644 500 l 692 414 q 802 433 696 414 q 909 447 876 447 q 1171 329 1062 447 q 1062 386 1112 363 q 964 400 1031 400 q 844 385 909 400 l 848 385 l 807 375 l 625 358 q 573 363 598 359 l 509 241 q 344 5 492 210 q 46 791 67 304 l 246 888 q 511 810 394 850 q 618 832 561 829 q 895 793 715 836 q 1171 749 1082 749 q 1408 803 1322 749 l 1446 821 q 1141 711 1340 711 q 838 750 1046 711 q 600 781 673 781 m 505 110 q 642 144 566 142 l 692 146 q 842 121 777 148 q 929 9 929 85 q 892 -54 929 0 l 892 -1 q 738 90 892 79 l 684 94 l 642 96 q 527 79 578 98 q 467 18 467 58 q 492 -28 467 -14 q 652 -72 564 -67 l 718 -75 q 1023 -45 783 -79 q 1434 -5 1303 -5 q 1839 -122 1719 -5 l 1792 -98 q 1590 -50 1727 -66 q 1471 -43 1525 -43 q 1102 -87 1350 -43 q 732 -126 863 -131 q 454 -36 559 -120 q 425 14 425 -14 q 505 110 425 68 z "},"œ":{"ha":486,"x_min":32,"x_max":448,"o":"m 113 361 q 111 310 111 325 q 167 69 111 192 q 233 332 233 186 q 229 400 233 367 q 113 361 187 392 m 300 176 q 323 85 307 122 q 435 235 383 92 l 435 208 q 336 4 435 106 q 267 135 290 61 q 189 3 237 60 l 181 17 l 111 134 q 32 364 56 227 q 225 452 104 414 l 284 415 l 330 453 q 419 379 404 397 q 448 326 448 357 q 300 176 448 285 m 376 372 q 323 400 346 393 q 300 203 298 289 q 394 326 394 268 q 376 372 394 342 z "},"Š":{"ha":950,"x_min":14,"x_max":938,"o":"m 863 710 q 938 852 885 827 q 901 851 913 851 q 789 880 835 851 l 744 909 q 503 920 574 920 q 102 720 94 920 q 302 496 109 545 l 659 450 q 857 261 851 426 q 775 92 861 139 q 577 60 711 57 q 183 97 293 65 q 30 233 50 136 q 173 342 42 308 q 344 367 210 351 q 404 371 379 371 q 561 346 490 371 q 602 293 604 330 q 398 222 598 231 q 301 235 347 220 q 225 292 244 254 l 207 304 q 236 239 202 271 q 300 199 264 211 q 459 179 382 172 q 627 281 623 195 q 577 358 629 332 q 352 411 471 411 q 159 380 257 411 q 14 245 14 336 q 24 201 14 225 q 193 31 46 79 q 511 -5 303 -5 q 795 51 700 -5 q 911 298 919 124 q 706 526 902 475 l 350 576 q 157 761 161 603 q 408 882 153 882 q 692 847 609 882 q 807 707 760 819 q 840 610 837 636 l 844 610 l 863 710 m 696 1225 l 602 1255 l 602 1226 q 488 1044 602 1121 q 417 1185 417 1126 q 437 1231 417 1215 l 323 1260 q 321 1234 321 1246 q 513 1022 321 1090 q 507 1025 509 1023 l 513 1018 q 696 1225 675 1089 z "},"š":{"ha":408,"x_min":10,"x_max":398,"o":"m 150 4 q 398 132 185 71 q 113 317 252 208 q 237 361 153 342 q 286 252 271 335 l 294 252 q 330 385 300 351 l 250 443 q 150 367 216 394 q 10 319 124 358 q 300 143 153 216 q 165 89 264 113 q 122 170 122 117 q 123 184 122 177 l 113 184 q 71 62 98 134 l 150 4 m 336 747 l 336 747 l 262 772 l 262 749 q 175 599 262 663 q 119 714 119 667 q 136 751 119 737 l 46 775 q 45 756 45 766 q 193 581 45 636 l 189 583 l 193 578 q 336 747 318 635 z "},"Ÿ":{"ha":590,"x_min":40,"x_max":789,"o":"m 288 1028 l 231 1187 l 336 1152 l 288 1028 m 553 1028 l 496 1187 l 600 1152 l 553 1028 m 427 359 l 392 -453 l 388 -453 l 338 359 q 40 911 173 610 l 205 832 q 382 374 242 707 l 573 676 q 734 911 643 787 l 789 810 q 427 359 719 766 z "},"ƒ":{"ha":6,"x_min":-189,"x_max":1109,"o":"m 838 -197 l 838 -197 q 1109 -157 978 -197 l 1098 -146 q 897 -168 1034 -165 q 783 -164 832 -170 q 448 -89 678 -153 q 106 -29 231 -29 q -132 -82 -16 -29 q -183 -158 -189 -109 q 2 -258 -173 -241 q 54 -261 30 -261 q 244 -197 180 -261 q 269 -138 273 -169 l 252 -149 q 169 -205 235 -186 q 64 -218 116 -220 q -161 -146 -154 -212 q -117 -92 -164 -108 q 50 -65 -41 -65 q 461 -140 156 -65 q 838 -197 692 -197 z "},"ˆ":{"ha":555,"x_min":91,"x_max":465,"o":"m 465 817 l 372 786 l 372 815 q 256 997 372 921 q 185 857 185 916 q 207 811 185 827 l 92 782 q 91 808 91 795 q 281 1019 91 952 q 275 1017 278 1019 l 281 1023 q 465 817 444 953 z "},"¯":{"ha":1042,"x_min":130,"x_max":911,"o":"m 130 0 l 911 0 l 911 921 l 130 921 l 130 0 m 258 87 l 258 833 l 779 833 l 779 87 l 258 87 z "},"˜":{"ha":769,"x_min":67,"x_max":718,"o":"m 714 446 l 718 441 q 509 349 614 349 q 371 377 461 349 q 233 406 280 406 q 67 332 145 406 l 75 339 q 286 453 199 453 q 428 421 335 453 q 569 389 520 389 q 714 446 646 389 z "},"μ":{"ha":199,"x_min":-496,"x_max":146,"o":"m 83 494 l 30 656 l 136 616 l 83 494 m -332 -375 l -332 -375 q -496 -278 -496 -342 l -490 -260 q -332 -196 -452 -196 q -193 -208 -244 -208 q -79 -191 -132 -208 q -163 -237 -98 -228 q -260 -236 -199 -243 q -360 -228 -336 -228 q -469 -272 -469 -228 q -350 -353 -469 -328 q -256 -357 -300 -357 q 32 -253 -39 -357 q 64 -142 67 -201 l 42 414 q -12 446 6 424 l 146 446 l 119 -140 q 3 -330 114 -267 q -225 -382 -87 -382 q -332 -375 -275 -382 z "},"–":{"ha":602,"x_min":32,"x_max":573,"o":"m 32 370 l 486 370 l 573 330 l 117 330 l 32 370 z "},"—":{"ha":931,"x_min":32,"x_max":901,"o":"m 32 370 l 813 364 l 901 325 l 117 330 l 32 370 z "},"‘":{"ha":201,"x_min":36,"x_max":163,"o":"m 163 597 q 90 754 90 669 q 108 848 90 798 q 36 677 36 754 q 67 564 36 624 l 163 597 z "},"’":{"ha":201,"x_min":32,"x_max":159,"o":"m 32 808 q 104 652 104 736 q 85 557 104 608 q 159 728 159 652 q 127 842 159 782 l 32 808 z "},"‚":{"ha":223,"x_min":32,"x_max":159,"o":"m 32 132 l 32 132 l 127 165 q 159 52 159 106 q 85 -119 159 -25 q 104 -25 104 -68 q 32 132 104 60 z "},"“":{"ha":384,"x_min":36,"x_max":346,"o":"m 163 597 q 90 754 90 669 q 108 848 90 798 q 36 677 36 754 q 67 564 36 624 l 163 597 m 346 597 q 273 754 273 669 q 292 848 273 798 q 219 677 219 754 q 250 564 219 624 l 346 597 z "},"”":{"ha":390,"x_min":32,"x_max":334,"o":"m 32 808 q 104 652 104 736 q 85 557 104 608 q 159 728 159 652 q 127 842 159 782 l 32 808 m 205 808 q 279 652 279 736 q 260 557 279 608 q 334 728 334 652 q 302 842 334 782 l 205 808 z "},"„":{"ha":390,"x_min":32,"x_max":334,"o":"m 32 132 l 32 132 l 127 165 q 159 52 159 106 q 85 -119 159 -25 q 104 -25 104 -68 q 32 132 104 60 m 205 132 l 205 132 l 302 165 q 334 52 334 106 q 260 -119 334 -25 q 279 -25 279 -68 q 205 132 279 60 z "},"†":{"ha":441,"x_min":-79,"x_max":521,"o":"m 521 513 l 521 507 l 221 493 l 205 -79 l 197 -79 l 148 490 l -32 481 q -48 473 -36 473 q -75 472 -68 474 l -79 546 l 144 533 l 136 648 q 77 692 111 659 l 227 692 l 221 529 l 521 513 z "},"‡":{"ha":441,"x_min":-140,"x_max":521,"o":"m -140 92 l -140 97 l 179 115 l 148 490 l -32 481 q -48 473 -36 473 q -75 472 -68 474 l -79 546 l 144 533 l 136 648 q 77 692 111 659 l 227 692 l 221 529 l 521 513 l 521 507 l 221 493 l 211 117 l 461 131 l 457 57 q 413 65 437 54 l 209 77 l 205 -79 l 197 -79 l 183 77 l -140 92 z "},"•":{"ha":1042,"x_min":130,"x_max":911,"o":"m 130 0 l 911 0 l 911 921 l 130 921 l 130 0 m 258 87 l 258 833 l 779 833 l 779 87 l 258 87 z "},"…":{"ha":596,"x_min":40,"x_max":553,"o":"m 136 113 l 92 3 l 40 146 l 136 113 m 344 113 l 300 3 l 248 146 l 344 113 m 553 113 l 509 3 l 457 146 l 553 113 z "},"‰":{"ha":1330,"x_min":26,"x_max":1292,"o":"m 887 917 q 496 529 846 731 q 227 376 438 496 q 26 17 26 224 l 26 4 q 264 318 54 189 l 654 557 q 897 917 867 687 l 887 917 m 871 367 l 871 367 l 875 366 q 769 132 841 223 q 677 16 746 103 l 671 7 q 515 399 525 143 l 627 452 q 871 367 783 414 m 704 57 l 704 57 q 783 311 783 187 q 779 364 783 339 q 618 406 673 399 q 610 332 610 370 q 704 57 610 180 m 390 823 l 390 823 l 392 822 q 288 589 362 684 q 197 472 268 558 l 189 464 q 34 856 41 600 l 144 908 q 390 823 300 871 m 223 514 l 223 514 q 302 768 302 644 q 296 821 302 796 q 136 863 189 856 q 130 789 130 827 q 223 514 130 637 m 1288 367 l 1288 367 l 1292 366 q 1185 132 1256 219 q 1094 16 1160 104 l 1088 7 q 931 399 942 143 l 1044 452 q 1288 367 1200 414 m 1121 57 l 1121 57 q 1200 311 1200 187 q 1196 364 1200 339 q 1036 406 1090 399 q 1027 332 1027 370 q 1121 57 1027 180 z "},"‹":{"ha":608,"x_min":113,"x_max":496,"o":"m 496 160 q 276 216 378 160 q 113 371 174 272 q 452 543 235 532 l 486 476 q 446 479 470 478 q 136 354 289 488 q 242 264 178 302 q 394 221 323 215 q 467 237 445 225 l 496 160 z "},"›":{"ha":608,"x_min":113,"x_max":496,"o":"m 113 160 q 333 216 230 160 q 496 371 437 273 q 157 543 374 532 l 123 476 q 163 479 138 478 q 473 354 319 488 q 366 264 430 302 q 215 221 285 215 q 142 237 163 225 l 113 160 z "},"™":{"ha":1133,"x_min":24,"x_max":1111,"o":"m 791 618 l 881 621 q 1111 661 1015 625 l 1104 663 q 738 633 1029 633 q 457 647 553 633 q 233 667 318 667 q 42 624 113 667 q 24 602 24 613 q 85 550 24 566 q 191 538 132 538 q 338 602 338 538 q 328 618 338 607 l 328 608 q 221 559 328 566 l 199 558 q 159 557 191 557 q 40 589 62 557 q 38 598 37 593 q 40 607 38 602 q 54 623 42 618 q 207 646 119 646 q 408 632 271 646 l 437 260 l 446 260 l 471 625 q 791 618 581 612 m 621 593 q 614 591 617 593 l 545 593 q 551 579 548 581 l 590 258 l 592 258 l 627 555 q 745 425 663 543 q 867 293 827 306 q 871 296 870 292 l 881 376 q 857 447 885 408 q 1015 534 962 485 l 1046 258 l 1048 258 l 1100 595 l 1010 593 q 1006 585 1010 589 q 1010 582 1008 583 q 968 532 984 545 q 844 464 927 496 q 740 542 806 501 q 623 595 667 587 l 621 593 z "},"­":{"ha":602,"x_min":32,"x_max":573,"o":"m 32 370 l 486 370 l 573 330 l 117 330 l 32 370 z "},"∙":{"ha":1042,"x_min":130,"x_max":911,"o":"m 130 0 l 911 0 l 911 921 l 130 921 l 130 0 m 258 87 l 258 833 l 779 833 l 779 87 l 258 87 z "},"♫":{"ha":1058,"x_min":-319,"x_max":1154,"o":"m 714 375 q 659 -5 659 157 q 675 -140 659 -96 l 545 -82 l 281 475 q 121 755 229 584 q 14 863 74 831 l -28 885 q -119 909 -52 898 q -215 916 -186 920 q -319 838 -258 909 q -229 960 -292 920 q -157 981 -203 980 q 42 921 -58 983 q 157 815 122 871 l 181 775 q 392 444 234 692 q 573 94 474 314 q 640 415 594 204 q 761 823 705 709 q 962 977 833 971 q 1080 952 1021 979 q 1153 867 1149 920 q 1154 839 1154 855 q 1019 524 1154 654 q 744 379 904 412 q 815 435 763 395 l 811 431 q 889 494 830 444 q 1000 602 989 581 q 1131 844 1131 728 q 1017 937 1131 942 q 825 790 869 932 l 827 791 q 714 375 804 730 z "},"":{"ha":1579,"x_min":-319,"x_max":1756,"o":"m 756 814 l 765 814 q 811 736 781 782 q 1177 93 1071 339 q 1244 414 1194 183 q 1364 822 1309 710 q 1567 975 1438 970 q 1684 951 1626 978 q 1756 865 1753 919 q 1756 838 1756 852 q 1623 522 1756 652 q 1348 378 1508 411 q 1419 433 1367 393 l 1415 429 q 1493 493 1434 442 q 1605 600 1593 579 q 1735 842 1735 726 q 1621 936 1735 941 q 1430 789 1473 930 l 1432 790 q 1318 374 1409 728 q 1263 -6 1263 156 q 1279 -142 1263 -97 l 1147 -83 l 885 473 q 787 648 849 550 q 714 375 755 543 q 659 -16 659 149 q 675 -140 659 -100 l 545 -82 l 281 475 q 121 755 229 584 q 14 863 74 831 l -28 885 q -119 909 -52 898 q -215 916 -186 920 q -319 838 -258 909 q -229 960 -292 920 q -157 981 -203 980 q 42 921 -58 983 q 157 815 122 871 l 181 775 q 392 444 234 692 q 573 94 474 314 q 640 421 618 319 q 730 746 681 606 q 756 814 734 759 z "},"":{"ha":819,"x_min":12,"x_max":1642,"o":"m 1155 -119 l 1155 -119 q 724 17 904 -87 q 267 392 513 139 q 56 49 111 207 q 12 -12 38 18 q 231 424 85 205 q 169 486 191 458 q 20 781 20 670 l 20 913 q 44 909 27 914 q 53 907 47 909 q 62 904 60 904 q 125 888 85 904 q 127 882 125 884 l 127 863 q 126 854 126 858 q 127 848 126 850 q 248 500 127 665 l 267 475 q 642 840 462 750 l 787 913 q 811 904 793 911 l 809 903 q 859 859 836 876 q 838 846 856 858 q 821 836 833 843 q 421 558 616 755 q 304 435 352 488 q 800 9 552 160 q 1338 -119 979 -100 q 1539 -129 1409 -123 l 1539 -132 l 1537 -132 l 1537 -129 l 1539 -129 l 1546 -127 l 1588 -127 q 1642 -138 1634 -127 q 1155 -119 1302 -138 z "},"ﬁ":{"ha":1042,"x_min":40,"x_max":964,"o":"m 829 899 l 829 899 l 958 806 q 964 640 964 721 q 899 170 964 350 l 897 134 q 899 110 899 121 q 746 -61 899 9 q 452 -125 608 -125 q 193 -97 312 -125 q 40 8 40 -61 q 100 68 40 45 q 219 93 150 93 q 378 80 272 93 q 537 68 484 68 q 665 86 612 68 q 488 36 634 36 q 334 50 436 36 q 181 64 233 64 q 50 9 50 64 q 406 -97 50 -97 q 842 157 834 -97 l 844 227 q 667 332 775 290 q 437 427 583 363 l 421 812 q 364 878 389 842 l 527 878 l 523 761 q 515 618 522 722 q 509 464 509 524 q 648 393 509 440 q 831 293 800 342 q 875 602 875 481 q 829 899 875 682 z "},"ﬂ":{"ha":1379,"x_min":75,"x_max":1519,"o":"m 199 -58 q 392 -89 277 -89 q 700 -54 477 -89 q 1117 -11 979 -11 q 1519 -135 1406 -11 l 1479 -114 q 1275 -60 1410 -78 q 1155 -52 1214 -52 q 779 -102 1035 -52 q 404 -144 541 -149 q 171 -78 264 -140 l 75 -154 l 104 -107 l 150 -66 q 94 21 96 -22 q 161 -37 129 -21 q 175 -46 165 -40 l 598 328 q 466 361 525 330 q 380 461 396 397 q 374 515 374 485 l 382 515 q 451 408 393 449 q 575 370 505 370 q 614 372 597 370 l 659 379 l 1133 794 q 1090 793 1119 793 q 742 836 973 793 q 475 869 555 871 q 290 817 359 867 q 269 785 273 808 q 273 746 264 766 q 419 679 300 679 q 551 699 495 679 q 634 789 634 728 l 634 840 q 661 775 661 787 q 583 653 661 690 q 457 627 531 628 q 313 658 376 625 q 235 771 235 698 q 260 828 235 803 q 494 924 350 918 q 809 882 604 928 q 1121 833 1023 833 q 1183 836 1141 833 l 1253 897 l 1306 860 q 1396 893 1366 875 l 1428 908 q 1340 846 1385 868 l 1332 843 l 800 421 l 927 456 q 964 457 942 457 q 1211 361 1097 457 q 1098 407 1179 375 q 1040 414 1073 414 q 844 379 974 414 l 698 340 l 199 -58 z "}," ":{"ha":384,"x_min":0,"x_max":0,"o":""},"·":{"ha":384,"x_min":0,"x_max":0,"o":""}}}
